<?xml version="1.0" encoding="UTF-8"?><svg id="Layer_2" xmlns="http://www.w3.org/2000/svg" width="462.64" height="525.42" viewBox="0 0 462.64 525.42"><defs><style>.cls-1{fill:#4b4a4f;stroke-width:0px;}</style></defs><g id="Layer_2-2"><g id="Layer_1-2"><path class="cls-1" d="M231.61,35.21c4.58-4.29,8.32-7.92,12.18-11.41C263.07,6.37,285.62-1.55,311.64.34c23.9,1.74,41.95,13.07,52.79,34.15,5.08,9.89,8.74,21.06,10.36,32.05,2.32,15.73,2.23,31.83,3.05,47.77.38,7.31,0,14.69.75,21.96,3.04,29.66,30.45,46.24,58.35,35.35,4.94-1.93,9.47-4.91,14.36-6.98,2.28-.96,5-.91,8.56-1.48.98,3.73,2.32,6.74,2.5,9.82,2.96,51.32-18.18,91.82-57.02,123.7-20.64,16.95-44,24.76-70.79,15.56-2.41-.83-5.12-.8-9.05-1.36-.79,4.93-2.27,9.3-2.06,13.59,1.39,28.21-9.38,52.02-26.14,73.68-5.29,6.84-10.75,13.63-16.77,19.83-23.02,23.75-35.66,52.68-42.98,84.38-1.43,6.18-3.03,12.32-5.69,23.06-2.5-8.29-3.93-11.87-4.65-15.58-7.05-36.86-21.91-69.7-48.74-96.63-5.15-5.17-9.57-11.09-14.02-16.91-15.79-20.68-25.45-43.57-25.21-70.09.04-4.43-1.32-8.87-2.19-14.31-6.24.92-11.5,1.27-16.53,2.52-17.2,4.24-32.96.51-48.08-7.82-17.27-9.51-30.98-23.03-42.7-38.56C11.19,243.46.6,215.85.04,184.77c-.17-9.55-.1-9.55,5.32-22.15,4.64,1.89,9.25,4,14.02,5.64,6.87,2.36,13.74,5.56,20.83,6.31,20.51,2.17,38.24-10.74,42.9-30.86,1.64-7.06,1.92-14.5,2.23-21.79.61-14.64.53-29.31,1.25-43.94.72-14.79,4.24-28.98,11.14-42.19C109.16,13.92,127.22,2.12,151.85.28c26.03-1.94,48.54,6.14,67.76,23.65,3.85,3.5,7.59,7.12,11.99,11.26v.02ZM361.38,248.79c-2.11-3.68-3.17-6.06-4.7-8.1-7.71-10.29-17.34-11.87-27.53-4.67-13.02,9.2-16.57,24.97-8.76,38.89,8.57,15.25,28.03,23.88,46.4,20.45,11.43-2.13,21.26-7.63,30.03-15.08,21.68-18.4,34.74-41.83,39.91-69.65.67-3.6-.42-7.52-.62-10.25-1.8-1.35-2.31-2.06-2.86-2.09-5.28-.22-10.56-.45-15.85-.45-27.44,0-46.94-14.48-54.14-41.21-2.58-9.59-4.07-19.57-5.1-29.47-1.78-17.22-2.45-34.56-4.26-51.78-2.45-23.25-15.43-39.39-36.22-49.04-22.81-10.59-51.61-1.41-64.84,19.95-10.2,16.46-8.93,38.29,3.05,52.33,13.7,16.05,33.36,12.69,40.76-7.13,1.37-3.66,1.46-7.8,2.17-11.71.55-3.06,1.12-6.12,2.06-11.18,3.48,2.69,5.99,3.78,7.19,5.68,8.03,12.73,6.7,25.35-1.46,37.44-3.66,5.43-7.97,10.43-12.17,15.85,2.43,6.86,4.61,13.1,6.86,19.32,5.46,15.09,5.08,30.13-.93,44.89-3.01,7.38-6.57,14.58-10.43,21.55-7.1,12.82-14.45,25.51-21.97,38.08-15.17,25.37-26.47,52.24-32.61,81.23-.58,2.73.31,6.89-5.4,7.48-1.2-4.36-2.57-8.7-3.59-13.13-4.35-18.92-10.59-37.17-19.63-54.36-5.89-11.2-12.32-22.11-18.52-33.14-7.18-12.77-14.68-25.38-21.49-38.34-9.8-18.65-11.46-37.98-3.7-57.92,2.12-5.44,3.37-11.22,4.93-16.5-4.02-5.22-7.43-9.29-10.44-13.64-10.01-14.48-10.07-28.06-.14-42.61,1.44-2.11,3.56-4.09,6.99-1.46,0,4.22-.29,8.81.07,13.35.53,6.79,2.97,12.92,7.56,18.11,9.33,10.57,21.15,11.55,31.49,1.91,12.19-11.36,16.59-25.52,12.73-41.8-6.7-28.3-37.84-45.79-65.52-36.14-22.4,7.81-37.14,23.34-40.58,47.48-1.97,13.82-2.65,27.83-3.55,41.78-1.07,16.68-3.02,33.19-8.42,49.09-6.64,19.56-21.2,30.26-40.74,34.25-6.35,1.3-13.22-.04-19.85.02-3.71.03-7.43.45-11.05.69-.03,37.04,24.33,77.56,55.21,92.45,5.32,2.57,11.25,4.67,17.06,5.25,17.85,1.77,32.99-3.8,43.11-19.36,8.68-13.34,5.49-29.84-7.02-39.17-11.29-8.42-22.48-5.56-29.1,7.38-1.03,2.01-2.35,3.86-4.39,7.18-6.7-10.78-5.33-19.5-.18-27.86,5.26-8.55,13.45-12.74,23.34-13.36,9.78-.61,18.5,2.74,25.82,8.96,15.69,13.32,21.58,30.33,15.86,50.19-2.35,8.16-6.88,15.81-11.22,23.22-3.17,5.42-5.06,10.71-4.34,16.98,3.2,28.01,11.28,53.51,35.79,70.74,1.63,1.15,3.08,2.54,4.64,3.8,15.87,12.78,28.24,28.16,35.62,47.35,1.09,2.82,1.72,6.59,6.54,5.9.91-1.64,2.08-3.27,2.77-5.08,7.59-19.84,20.22-35.83,36.87-48.83,3.67-2.87,7.23-5.89,10.73-8.97,12.39-10.86,20.93-24.05,24.21-40.38,1.44-7.18,2.75-14.4,4.49-21.51,1.89-7.7-.22-14.01-4.31-20.69-4.81-7.85-9.42-16.31-11.72-25.13-5.99-22.95,7.65-47.21,29.34-54.59,9.4-3.2,18.37-2.48,26.95,2.43,6.02,3.45,10.25,8.59,12.3,15.17,1.77,5.69,3.04,11.61-3.51,18.93v.03ZM231.61,264.64c7.01-14.09,11.81-25.85,18.42-36.48,7.01-11.27,15.9-21.36,23.69-32.16,4.28-5.93,8.28-12.11,11.87-18.48,5.43-9.63,6.72-20.14,5.13-30.99-1.76-11.97-5.13-15.7-17.83-17.18-14.05-1.64-25.3-7.52-34.07-18.57-1.91-2.41-4.63-4.18-6.45-5.77-1.96.64-2.67.72-3.18,1.08-1.07.76-2.25,1.52-3.02,2.56-9.72,13.17-22.62,20.35-39.06,20.91-8.04.27-11.55,5.43-13.73,12.29-4.1,12.95-1.98,25.32,4.78,36.53,6.52,10.8,13.88,21.19,21.72,31.07,11.28,14.22,21.13,29.08,26.8,46.48.76,2.34,2.44,4.38,4.92,8.71h0Z"/></g></g></svg>