<?xml version="1.0" encoding="UTF-8"?>
<svg id="Layer_2" data-name="Layer 2" xmlns="http://www.w3.org/2000/svg" version="1.1" viewBox="0 0 2911.8 584.7">
  <defs>
    <style>
      .cls-1 {
        fill: #454543;
      }

      .cls-1, .cls-2 {
        stroke-width: 0px;
      }

      .cls-2 {
        fill: #bf9c76;
      }
    </style>
  </defs>
  <g id="Layer_1-2" data-name="Layer 1-2">
    <path class="cls-2" d="M231,490.2c-4.6,4.3-8.3,7.9-12.2,11.4-19.3,17.4-41.8,25.3-67.9,23.5-23.9-1.7-41.9-13.1-52.8-34.1-5.1-9.9-8.7-21.1-10.4-32-2.3-15.7-2.2-31.8-3.1-47.8-.4-7.3,0-14.7-.8-22-3-29.7-30.5-46.2-58.3-35.4-4.9,1.9-9.5,4.9-14.4,7-2.3,1-5,.9-8.6,1.5-1-3.7-2.3-6.7-2.5-9.8-3-51.3,18.2-91.8,57-123.7,20.6-16.9,44-24.8,70.8-15.6,2.4.8,5.1.8,9.1,1.4.8-4.9,2.3-9.3,2.1-13.6-1.4-28.2,9.4-52,26.1-73.7,5.3-6.8,10.8-13.6,16.8-19.8,23-23.8,35.7-52.7,43-84.4,1.4-6.2,3-12.3,5.7-23.1,2.5,8.3,3.9,11.9,4.6,15.6,7.1,36.9,21.9,69.7,48.7,96.6,5.1,5.2,9.6,11.1,14,16.9,15.8,20.7,25.5,43.6,25.2,70.1,0,4.4,1.3,8.9,2.2,14.3,6.2-.9,11.5-1.3,16.5-2.5,17.2-4.2,33-.5,48.1,7.8,17.3,9.5,31,23,42.7,38.6,18.5,24.6,29.1,52.2,29.7,83.3.2,9.5.1,9.5-5.3,22.1-4.6-1.9-9.2-4-14-5.6-6.9-2.4-13.7-5.6-20.8-6.3-20.5-2.2-38.2,10.7-42.9,30.9-1.6,7.1-1.9,14.5-2.2,21.8-.6,14.6-.5,29.3-1.2,43.9-.7,14.8-4.2,29-11.1,42.2-11.4,21.9-29.5,33.7-54.1,35.5-26,1.9-48.5-6.1-67.8-23.6-3.9-3.5-7.6-7.1-12-11.3h0ZM101.2,276.6c2.1,3.7,3.2,6.1,4.7,8.1,7.7,10.3,17.3,11.9,27.5,4.7,13-9.2,16.6-25,8.8-38.9-8.6-15.2-28-23.9-46.4-20.4-11.4,2.1-21.3,7.6-30,15.1-21.7,18.4-34.7,41.8-39.9,69.7-.7,3.6.4,7.5.6,10.2,1.8,1.4,2.3,2.1,2.9,2.1,5.3.2,10.6.5,15.9.5,27.4,0,46.9,14.5,54.1,41.2,2.6,9.6,4.1,19.6,5.1,29.5,1.8,17.2,2.4,34.6,4.3,51.8,2.4,23.2,15.4,39.4,36.2,49,22.8,10.6,51.6,1.4,64.8-20,10.2-16.5,8.9-38.3-3.1-52.3-13.7-16-33.4-12.7-40.8,7.1-1.4,3.7-1.5,7.8-2.2,11.7-.6,3.1-1.1,6.1-2.1,11.2-3.5-2.7-6-3.8-7.2-5.7-8-12.7-6.7-25.4,1.5-37.4,3.7-5.4,8-10.4,12.2-15.9-2.4-6.9-4.6-13.1-6.9-19.3-5.5-15.1-5.1-30.1.9-44.9,3-7.4,6.6-14.6,10.4-21.5,7.1-12.8,14.4-25.5,22-38.1,15.2-25.4,26.5-52.2,32.6-81.2.6-2.7-.3-6.9,5.4-7.5,1.2,4.4,2.6,8.7,3.6,13.1,4.4,18.9,10.6,37.2,19.6,54.4,5.9,11.2,12.3,22.1,18.5,33.1,7.2,12.8,14.7,25.4,21.5,38.3,9.8,18.6,11.5,38,3.7,57.9-2.1,5.4-3.4,11.2-4.9,16.5,4,5.2,7.4,9.3,10.4,13.6,10,14.5,10.1,28.1.1,42.6-1.4,2.1-3.6,4.1-7,1.5,0-4.2.3-8.8,0-13.4-.5-6.8-3-12.9-7.6-18.1-9.3-10.6-21.1-11.5-31.5-1.9-12.2,11.4-16.6,25.5-12.7,41.8,6.7,28.3,37.8,45.8,65.5,36.1,22.4-7.8,37.1-23.3,40.6-47.5,2-13.8,2.6-27.8,3.5-41.8,1.1-16.7,3-33.2,8.4-49.1,6.6-19.6,21.2-30.3,40.7-34.2,6.4-1.3,13.2,0,19.9,0,3.7,0,7.4-.5,11-.7,0-37-24.3-77.6-55.2-92.4-5.3-2.6-11.2-4.7-17.1-5.2-17.9-1.8-33,3.8-43.1,19.4-8.7,13.3-5.5,29.8,7,39.2,11.3,8.4,22.5,5.6,29.1-7.4,1-2,2.4-3.9,4.4-7.2,6.7,10.8,5.3,19.5.2,27.9-5.3,8.5-13.5,12.7-23.3,13.4-9.8.6-18.5-2.7-25.8-9-15.7-13.3-21.6-30.3-15.9-50.2,2.4-8.2,6.9-15.8,11.2-23.2,3.2-5.4,5.1-10.7,4.3-17-3.2-28-11.3-53.5-35.8-70.7-1.6-1.1-3.1-2.5-4.6-3.8-15.9-12.8-28.2-28.2-35.6-47.3-1.1-2.8-1.7-6.6-6.5-5.9-.9,1.6-2.1,3.3-2.8,5.1-7.6,19.8-20.2,35.8-36.9,48.8-3.7,2.9-7.2,5.9-10.7,9-12.4,10.9-20.9,24.1-24.2,40.4-1.4,7.2-2.8,14.4-4.5,21.5-1.9,7.7.2,14,4.3,20.7,4.8,7.9,9.4,16.3,11.7,25.1,6,23-7.6,47.2-29.3,54.6-9.4,3.2-18.4,2.5-26.9-2.4-6-3.5-10.2-8.6-12.3-15.2-1.8-5.7-3-11.6,3.5-18.9h0ZM231,260.8c-7,14.1-11.8,25.9-18.4,36.5-7,11.3-15.9,21.4-23.7,32.2-4.3,5.9-8.3,12.1-11.9,18.5-5.4,9.6-6.7,20.1-5.1,31,1.8,12,5.1,15.7,17.8,17.2,14.1,1.6,25.3,7.5,34.1,18.6,1.9,2.4,4.6,4.2,6.4,5.8,2-.6,2.7-.7,3.2-1.1,1.1-.8,2.2-1.5,3-2.6,9.7-13.2,22.6-20.4,39.1-20.9,8-.3,11.5-5.4,13.7-12.3,4.1-13,2-25.3-4.8-36.5-6.5-10.8-13.9-21.2-21.7-31.1-11.3-14.2-21.1-29.1-26.8-46.5-.8-2.3-2.4-4.4-4.9-8.7h0Z"/>
    <path class="cls-1" d="M2573.2,262.7c25.2,3.4,35.1-1.1,44-20.7,4.4-9.6,6.9-20.1,10.1-30.2,3.2-10.2,5.7-20.6,9.2-30.6,15.1-43.2,74.8-45.6,98.1-13.9,11.9,16.1,18.6,33.8,17.8,53.9-.6,13,4.3,23.4,13,32.3,11.2,11.5,34,15.1,48.3,7.8,7.6-3.9,12.5-10.2,13.9-18.5,1.2-7.2,1.7-14.6,1.7-21.9.2-38,.2-75.9,0-113.9,0-8.5-1.1-17.1-1.8-26.5,6.8-4.4,14-6.2,23-1,.3,3.2,1.1,7.1,1.1,10.9,0,44.6.1,89.3,0,133.9,0,5.3-.3,10.7-1.4,15.9-4,18.9-16,30.2-35.4,32.9-21.9,3-42.7,1.2-58.8-16.8-1.3-1.4-3.2-2.2-4.9-3.2-.5-.3-1.2-.2-3.4-.6-2.9,3.2-6.6,6.9-9.6,11-22.8,30.9-75.5,34.7-100.8,6.5-3.1-3.4-6.8-6.2-9.6-8.8-2.4.2-4.1-.2-4.9.5-12.5,10.5-27.2,12.7-43,12.6-80.6-.3-161.2-.2-241.8-.3-6.6,0-13.4-.2-19.9-1.3-20.1-3.1-30.6-14.1-32.9-34.3-.7-5.9-.5-12-.5-18,0-34,0-68,0-101.9,0-4-.3-8,0-12,.8-11.5-2.8-19.5-15.4-21.6-2.2-.4-4.2-2.3-7.2-4,2.6-2.1,4-4,5.5-4.2,8.6-.8,17.3-1.6,25.9-1.4,8.1.2,12.1,4.4,12.8,12.3.4,5.3.3,10.7.3,16,0,39.3,0,78.6,0,117.9,0,7.3.1,14.7,1.4,21.9,2.1,11.7,9.6,18.7,21.4,20.7,4.6.8,9.3.9,13.9.9,60.6,0,121.2,0,181.9,0,5.2,0,10.5-.9,16.6-1.5,1-4.1,2.6-7.8,2.6-11.5.2-24.3-4.4-47.7-13.8-70.1-4.7-11.1-10.9-21.3-20-29.6-11.8-10.8-25.3-13.9-40.8-9.8-16.4,4.4-28.1,14.9-36.8,28.9-4.2,6.7-7.4,14-11.1,21.1-6.8-2.4-9.2-6.3-6.1-10.6,7-9.7,14-19.5,21.7-28.6,22.6-26.7,62.3-28.4,87.9-6.5,9.8,8.4,17.5,18.2,23.8,29.4,10.2,18.2,16.5,37.8,19.6,58.4,1.4,9.1,2.8,18.3,4.4,28.3h0ZM2633.2,247.7c8.5,13.4,18.6,22.8,31.9,28.4,19.2,8.2,36.9,3.6,50-12.7,6-7.4,10.2-15.8,11.9-25,3.4-18.6,2.8-37.1-4.2-55-3.2-8.2-8-15.4-14.9-20.9-16.8-13.6-38.6-9.9-49.6,8.7-3,5.1-5.4,10.7-7.2,16.4-6.1,19.7-11.7,39.5-17.8,60.2h0Z"/>
    <path class="cls-1" d="M1500.1,271.4c-3.2-.6-6.8-.7-9.7-2.1-7.8-3.6-15-2.8-23.1-.5-9.5,2.7-19.6,4.4-29.4,4.4-46.6.4-93.3.4-139.9,0-10.5-.1-21.2-2-31.5-4.3-6.8-1.5-12.8-1.3-19.5,0-10.3,2.2-21,4.2-31.5,4.3-69.3.3-138.6.1-207.9,0-5.3,0-10.7-.1-16-.7-22.2-2.6-33.5-14.1-35.3-36.2-.5-6-.3-12-.4-18,0-31.3,0-62.6,0-93.9,0-6-.3-12,0-18,.5-11.4-3.3-19.4-15.5-22-2.2-.5-4.2-2.6-6.8-4.3,10.8-4.4,27.8-6,35.1-3.5,4.2,1.4,6.6,4.7,7,8.9.6,5.9.7,12,.7,17.9,0,39.3,0,78.6,0,117.9,0,6-.1,12,.6,18,2,15.5,10.5,23.8,26,25.6,5.3.6,10.6.6,16,.6,64.6,0,129.3,0,193.9-.1,7.3,0,14.6-.8,21.8-1.8,2.3-.3,4.3-2.5,7.6-4.5-2.9-3.7-5-6.9-7.6-9.6-6.9-7.2-14.4-13.8-20.8-21.5-8.2-9.8-13.4-21.4-16.1-34-5.1-24.1,3-46,23.8-58.9,27.8-17.2,57-17.9,85.2-1.4,26.2,15.3,34.1,47.4,19.9,75.3-7.2,14-18.3,24.4-30.9,33.5-4.8,3.5-9.8,7-14.3,10.9-3.1,2.7-1.7,8.9,2.2,9.8,5.2,1.1,10.4,2.2,15.7,2.2,44,.1,87.9.3,131.9-.2,9.2,0,18.5-2,27.5-4.1,6.4-1.5,8.3-6.7,5.6-12.4-1.7-3.6-3.9-7-5.8-10.4-4.9-8.7-10.2-17.2-14.5-26.2-9.3-19.9-18.7-39.8-32.8-57-1.1-1.4-1.2-3.6-2-6.1,1.9-1.8,3.5-4,5.7-5.2,22.5-12.5,46.5-20.4,72.5-19.1,10.5.5,21.4,2.5,31,6.4,36.1,14.6,46.6,57.5,22.1,87.9-8.9,11-20.3,19.1-32,26.9-5.4,3.6-12.3,5.4-15.3,13.6,2.1,1.9,4.4,4,6.7,6.2,0,2,0,3.9,0,5.9h0ZM1309.2,181.3c-.6-5.9-.7-12-1.9-17.8-2-10.1-7-18.7-15.3-25-28-21.1-71.4-3.1-75,31.8-3.3,32.1,11.1,56.6,35.9,75.7,4.6,3.6,9.8,3.9,14.9.8,24.9-14.8,42.9-33.9,41.3-65.6h0ZM1483,247.2c8.5-1.6,14.9-7.7,21.7-13,20.3-16,26.9-37.3,23.5-62.3-3-21.5-17.1-34.7-38.7-36.2-18.4-1.3-35.8,2.4-52.4,10.3-3.4,1.6-6.2,4.6-9.9,7.3,1.4,3.7,2.2,6.8,3.7,9.7,8.3,16,16.6,31.9,25.1,47.8,4.4,8.2,8.8,16.4,13.7,24.4,3.1,5.1,6.5,10.2,13.3,12.1h0Z"/>
    <path class="cls-1" d="M1709.7,268.4c23-14.2,25.6-18.8,25.8-45.8.2-32.6,0-65.3,0-97.9,0-3.3-.2-6.7-.2-10,0-8-2.6-14.2-10.9-17.2-2.8-1-5.1-3.3-10.2-6.8,13.9-3.6,24.9-3.5,35.8-1.9,5,.7,8,4.7,8.1,9.9,0,4-.3,8-.5,12-1.2,25.3-2.6,50.5-3.6,75.8-.2,4.3,1.1,8.6,1.7,12.4,5.8,1.3,7.3-2.1,9.2-4.7,6.6-9.2,12.8-18.7,19.8-27.6,8.3-10.5,18.1-19.5,29.5-26.6,13.3-8.2,27.3-9.7,42.2-5.2,17.5,5.2,30.3,16.3,40.1,31.3,10,15.3,16,32.2,19.4,50,2.2,11.8,3.4,23.7,5.2,35.6,1.5,10.2,3.9,12.6,13.9,13.5,5.3.5,10.7.4,16,.4,77.3,0,154.5,0,231.8-.1,7.3,0,14.7,0,21.9-1.2,11.9-2,18.9-9.9,20.2-21.5.5-4.5-3.5-8.1-7.4-6.4-4.2,1.9-8.1,4.5-12.4,6.4-36.5,16.4-74.4-6.4-75.4-46.4-.9-36.6,15.1-65.4,53.7-77,17.4-5.2,35.3-6.5,53.4-5.9,6.4.2,9.7,3.3,10.7,9.7.8,4.6.9,9.3.9,13.9,0,29.3.1,58.6,0,87.9,0,6.6-.4,13.4-2,19.8-4.1,15.7-14.5,25.2-30.7,27.5-6.6,1-13.3,1.1-19.9,1.1-155.2,0-310.4,0-465.6-.1-4.7,0-9.4,0-13.9-.8-2.2-.4-4-2.5-6.5-4.2h0ZM1744.9,261.5c7.6,5.1,15.1,4.1,22.3,4.1,35.8.1,71.7,0,107.5,0,4.6,0,9.3-.1,13.9-.6,6.6-.8,9.9-3.8,9.7-10.3-.4-11.2-1.2-22.5-2.8-33.7-2.3-16.5-6.7-32.5-14.3-47.4-4.9-9.6-10.9-18.2-19.5-24.9-12.8-9.9-26.7-11.7-40.8-3.3-6.8,4-13.3,9-18.8,14.6-25.2,25.4-42.7,55.7-55.4,88.9-1.6,4.1-1.3,8.8-1.9,12.7h0ZM2227.3,161.6h-.3c0-10.6.3-21.2-.1-31.8-.2-5.3-3.7-8.2-9.1-8.7-2-.2-4-.2-6-.1-47.7,2.7-78.2,58.3-55,100.5,13.3,24.2,39.6,26.5,57.1,4.9,8.6-10.7,12.7-23.2,13.4-36.8.4-9.3,0-18.6,0-27.9h0Z"/>
    <path class="cls-1" d="M942.3,505.5c7.2-2.9,8.4-10,11.1-15.9,14.7-32.1,29.2-64.3,43.8-96.4,2.2-4.9,4.3-9.8,6.9-14.4,3.2-5.7,8.3-7.8,15.2-6.7,4.4.7,7.6,3.3,8.3,7.5.9,5.2,1.1,10.6,1.1,15.9,0,28,0,55.9,0,83.9,0,5.3,0,10.7,0,16,.2,17.6,3.3,34.3,15.7,48.6-16.6.4-26.6-5.1-31.2-19-3.1-9.3-4.7-19.5-5-29.3-.7-23.3-.2-46.6-.4-69.9,0-6.5-.6-13-.8-18.7-4.8-2.2-6.5,0-7.7,2.4-3.6,7.1-7,14.3-10.3,21.6-14.2,31.6-28.4,63.2-42.7,94.7-2.7,5.9-4.4,12.5-9.3,16.6-6.9-.8-7.5-6.2-9.3-10.1-15.2-32.6-30.1-65.3-45.2-97.9-2.8-6-5.9-12-9.5-17.5-1-1.6-4.5-2.2-6.8-2.1-1.4,0-3.6,2.3-3.8,3.9-.9,5.9-1.7,11.8-1.7,17.8-.2,27.3,0,54.6-.1,81.9,0,6-.2,12-.7,17.9-.1,1.5-1.9,2.8-4.5,6.4-.9-5.2-1.9-8.2-1.9-11.2,0-47.3,0-94.6,0-141.9,0-1.3,0-2.7.1-4,.2-5.5.9-10.8,7.2-12.8,7.9-2.5,15.1-.2,19,6.6,2.6,4.6,4.7,9.5,7,14.4,14.8,32,29.6,64.1,44.5,96.1,2.7,5.8,4,12.9,11.3,15.7h0Z"/>
    <path class="cls-1" d="M746,124.9c.4,7.1,1,12.9,1,18.8,0,27.3,0,54.6,0,81.9,0,6.6.1,13.4,1.3,19.9,2,11.5,8.5,18.4,19.9,19.1,13.9.9,28,.7,41.8-.3,11.9-.9,19.2-8.5,22.1-20,1.3-5.1,2.3-10.5,2.3-15.8,0-32.6,1.7-65.2-1.4-97.7,5.6-6.6,12.2-6.9,20.7-4.3.6,4.1,1.7,7.9,1.7,11.7.1,29.3.1,58.6,0,87.9,0,4.6-.4,9.3-1.3,13.9-3.5,17.6-14.4,28.7-31.8,31.7-21.1,3.6-42.5,2.7-63.7,0-8.9-1.1-16-6.3-21.2-13.8-2.6-3.8-5.2-7.5-8.6-12.5-4.6,4.1-8.5,7.3-12.2,10.8-28.2,27-66.7,22.6-86.6-10.9-17.9-30.2-19.6-61.8-2.7-93.3,14.5-27.2,48-46.3,85.3-26.7,1.8.9,3.6,1.8,5.2,2.9,7.6,5,14.7,5.6,21.2-1.8.7-.8,2.5-.6,6.7-1.4h0ZM728.2,193.7c-.6-14.2-1.7-28.1-6.3-41.5-5.5-15.9-16.8-25.4-33.7-27.1-17.1-1.8-29.7,5.9-38.1,20.4-3.3,5.7-5.9,12-7.7,18.3-5.9,20.9-6.1,42.1-.9,63.1,1.9,7.6,5.3,15.2,9.7,21.7,12.2,18,34.6,21.8,52.6,9.6,10.4-7,17.2-16.8,19.6-29.1,2.2-11.7,3.2-23.6,4.8-35.5h0Z"/>
    <path class="cls-1" d="M1201.2,378.5c1.7-.9,2.8-1.7,4-2.2,11.3-4.3,17.8-.3,17.5,13-.1,7.3-.1,14.7.2,22,.2,5.2,1,10.4,1.7,17.2,5.4-1.5,9.8-2.1,13.7-3.8,10.2-4.2,20.6-5.5,31.3-3.7,16.7,2.8,27.9,12.1,31.8,29,1.1,4.5,2,9.2,2,13.8.2,24,0,48-.1,71.9,0,1.9-.8,3.8-1.3,5.6-12.2,5.3-17.1,3.3-18.3-7.5-.5-4.6-.4-9.3-.4-14,0-16.7.4-33.3-.3-50-.3-7.9-1.3-16.2-4.3-23.3-8.7-20.7-37-24-51.3-6.5-2,2.5-3.3,5.8-3.8,9-.8,4.6-.8,9.3-.8,13.9-.2,19.3-.2,38.6-.4,58,0,5.3-.2,10.7-.9,15.9-.7,4.8-5.7,8.5-10,8-4.5-.5-7.6-3.4-8.4-7.4-1-5.2-1.1-10.6-1.1-15.9,0-30,0-60,0-89.9,0-17.3-.4-34.5-.7-53.2h0Z"/>
    <path class="cls-1" d="M2323,432.1c7,1.3,12.6-1.3,18.4-5.2,5.5-3.8,10.7-.9,11.4,5.7.5,4,.5,8,.5,12,0,38,0,76,0,114,0,4.7-.2,9.3-.9,13.9-.8,5.1-5.2,8.3-9.9,8.2-4.9-.2-8.9-3.6-9.2-8.6-.7-8.5-1-17.1-1.6-26.5-5,0-8.7-.3-12.4,0-7.9.8-15.8,2.6-23.7,2.7-16.8.3-30.1-7.3-37.6-22-14.8-28.6-14.7-58.1,1.3-86,12.4-21.6,40.1-26.5,61.1-12.6,1.5,1,2.1,3.2,3.1,4.9-1.8-.7-3.7-1.6-5.6-2.2-22.4-6.7-36.5-.2-43.5,21.6-7.1,22.1-7.3,44.6.7,66.6,7.2,19.8,23.1,27,43.2,20.7,11.3-3.5,14.2-6.7,14.4-18.4.4-21.3-.1-42.6.3-63.8.2-10-2.9-18.2-10-25h0Z"/>
    <path class="cls-1" d="M778.2,547.4c-22.4-.6-35.1-10.7-43.6-27.2-3.9-7.6-7.5-15.4-11.5-23.6-8-.5-15.2-1.3-22.4-1.4-13.3-.2-26.6.3-39.9,0-10.8-.3-17.4,4.5-21.1,14.5-3.2,8.7-7.2,17.2-11,25.6-1.3,2.8-3.2,5.3-4.8,8-6-3.8-3.2-7.6-1.8-11,9.5-22.7,19.1-45.3,28.7-68,10.4-24.5,20.7-49,31.2-73.4,2.6-5.9,3.9-12.8,11.4-17.4,2,2.1,4.7,3.9,6.1,6.4,2.5,4.6,4.4,9.7,6.4,14.6,14.7,35.6,29.3,71.3,44.1,106.9,3.3,8,6.2,16.2,10.7,23.6,4.3,7.2,10.4,13.3,17.6,22.4h0ZM715.4,484.3c-.4-4.3,0-7.8-1.1-10.6-7.6-19-15.5-38-23.5-56.9-1.3-3.1-3.6-5.5-9.4-3.9-10.1,20.9-20.5,42.9-27.9,66.2-.5,1.6.8,3.7,1.2,5.4,15.7,4.7,41.8,4.8,60.7-.2h0Z"/>
    <path class="cls-1" d="M1135.8,535.8c-2.1,2.4-3.8,5.7-6.4,7.2-11.5,6.7-24.1,7.3-36.7,4-18.7-4.9-29-23.1-24.2-41.9,2.5-9.7,9.3-15.9,18-20.1,11-5.3,22.9-6.5,34.8-7.9,6.5-.8,13-1.4,20.2-2.1,4.4-13.8,1.7-25.8-5.3-36.6-8.6-13.3-31.7-14.8-44.3-3.3-3.8,3.5-6.8,8.1-10,12.1-5.8.1-7-3.4-6.4-7.9,1-7.3,5.8-12,12.4-14.3,16-5.7,32.5-6.6,49-2.4,11,2.8,18.9,10,22.7,20.6,2.4,6.8,4.5,14.1,4.7,21.2.7,22.6.5,45.1.5,67.7,0,2-.4,4-.8,5.9-1.1,5.1-6.4,7.9-10.7,4.9-5.5-3.8-10.8-7.6-18-6.8,12.3-15.1,10-31.9,6.7-49.8-14.2-4.2-26.9-1.7-38.8,5-11.2,6.3-15.8,17.2-13.1,28.6,3,12.3,13.1,20.5,26.3,20,6.5-.2,12.9-2.7,19.3-4.2h0Z"/>
    <path class="cls-1" d="M2821.3,448.5c-1-13.7,4.2-20.7,14.1-24.1,14.8-5.1,30.1-5.9,45.3-2.8,12.7,2.6,21.4,10.5,25.8,22.7,2,5.6,3.7,11.5,4.1,17.4,1.8,26.5,1.1,53.1.6,78.4-10.5,10.2-14.8-2.5-22.8-3.8-3.3,1.9-7.3,4.2-11.3,6.4-10.3,5.7-21.6,6.8-33,5.3-16.6-2.1-27.9-13.7-29.9-30-2-15.8,5-28.4,21.5-34,11.2-3.9,23.3-5.1,35.1-7.1,5.8-1,12.1.5,17.7-4,4.1-11.9,1-23.4-5.2-33.8-8.5-14.3-33.1-16-45.8-3.7-2.8,2.7-4.4,6.7-7.2,9.5-1.7,1.6-4.6,2-9,3.7h0ZM2888.8,486.6c-17.2-3.5-30-1.7-40.7,5.4-10.9,7.3-15,19.3-10.7,31.4,3.9,10.7,14.2,17.2,26.9,16.7,12.6-.5,24.8-9.2,26.2-20.5,1.3-11,2.6-22.4-1.6-33h0Z"/>
    <path class="cls-1" d="M2451.4,539.9c-.2.6-.2,1.5-.6,1.9-8,7.9-18.2,6.8-28,6.5-9-.3-16.8-3.8-23.3-10-16-15.5-12.3-41.8,7.4-52.4,11.4-6.1,24.1-7.1,36.6-8.8,6.5-.9,13.4.7,20.1-4,4.3-13,1.7-25.6-6.7-36.7-8.9-11.8-31.6-12.1-43.3-1.3-2.9,2.7-4.6,6.5-7.4,9.3-1.7,1.7-4.5,2.2-7,3.4-2.2-11.7-.3-18,8.4-21.6,18.4-7.7,37.4-8.9,56.4-1.9,9.2,3.4,15.3,10.8,18.2,20,2.4,7.5,4.5,15.5,4.7,23.4.6,23.9.2,47.8.2,73-3.8,1-9.2,3.9-10.5,2.6-8.2-8-17-4.7-25.9-2.9,6.7-7.1,16.1-12.5,15.8-24.1-.3-10.3,2.7-21-3.7-31-14.7-2.6-28.1-.3-40.2,7.8-9.5,6.4-13.1,16.9-10.1,28,2.9,10.6,10.1,17.1,20.9,18.7,5.8.9,11.9.2,17.8.2h0Z"/>
    <path class="cls-1" d="M1404.3,540.4c-14.8,12.1-30.8,10.6-46.4,2.7-11.8-5.9-16.5-17-16.4-29.8,0-12.4,6.2-21.4,17.1-27.2,11.4-6.2,24.1-7.3,36.6-8.9,6.5-.9,13.4.6,19.9-4.3,4.2-11.5,2.2-23-4.3-33.5-8.4-13.7-31-16.2-44.1-5-3.5,3-5.6,7.4-8.9,10.6-1.5,1.4-4.5,1.3-6.9,1.9-.6-2.4-1.9-5-1.5-7.3,1.3-7.1,5.8-12,12.4-14.4,16-5.8,32.5-6.8,49-2.6,11.9,3,19.9,11,23.4,22.4,2.5,8.2,4.4,16.8,4.7,25.4.7,20.6.3,41.2.4,61.8,0,1.3,0,2.7-.3,4-.9,7-7.1,10.4-12.9,6.4-4.3-3-7.9-7.3-13.9-6.4l.2.3c6.4-16.3,9.8-32.7,3.1-50-14.6-4.5-27.8-1.5-40.1,6.1-10.2,6.3-13.1,16.2-11,27.6,2,10.7,10.3,18.3,22,19.8,5.9.7,11.9.3,17.8.4l.2.2h0Z"/>
    <path class="cls-1" d="M2750.4,510.2c6-2.1,6.7-8,8.5-12.7,7.2-18.6,14.1-37.4,21.2-56,1.9-5,4-9.9,6.4-14.5.7-1.2,3.2-1.5,5.3-2.4,3.2,6.1,0,10.8-1.8,15.4-12.8,34.3-25.6,68.6-38.6,102.8-3.3,8.7-6.9,17.3-11.6,25.4-6.4,11-15.9,17.9-29.6,16.3-.6,0-1.2-.5-2.2-.9.2-4.7,4.6-3.3,6.9-4.3,7.6-3.4,13.4-8.5,17.8-15.5,4.6-7.2,5.8-14.5,2.5-22.7-12.7-31.5-25.2-63-37.6-94.6-4-10.3-11.5-17.5-21.5-23.9,23.9-4.3,35.2.6,43.4,19.2,7.8,17.7,14.3,35.9,21.7,53.7,2.2,5.3,2.9,11.8,9.2,14.8h0Z"/>
    <path class="cls-1" d="M1568.6,491.1c-4.6,9.7-.9,19.1,2.9,28.3,4.1,9.5,10.6,17.7,20.9,19.9,9.4,2,19.5,1.3,29.3,1.9.4,3.6-3,3.9-5.1,4.6-34.3,10.6-63.4-5.8-71.2-40.6-3.8-17.1-3.3-34.4,3-51,11.4-30.3,42.4-42.7,71.8-28.8,17.3,8.2,29.7,33.6,25.3,52.1-1.2,4.9-4.5,8.2-9.6,8.9-4.6.6-9.3.6-13.9.7-12,.1-23.9,0-35.9.2-5.9,0-12-.3-17.5,4h0ZM1622.2,477.2c4.9-14.4,1.7-27-6.5-38.1-9.8-13.4-26.7-13.8-37.8-1.5-7.9,8.8-10.9,19.6-12,31.1-.6,6.4,2.5,10.3,9,10.6,11.9.5,23.9.5,35.9.3,3.8,0,7.6-1.5,11.5-2.3h0Z"/>
    <path class="cls-1" d="M1500.1,271.4c0-2,0-3.9,0-5.9,14.7,0,29.3.3,44,.2,5.3,0,10.7-.2,15.9-1.1,12.6-2,20.3-9.7,23.1-21.9,1.3-5.8,1.4-11.9,1.4-17.9,0-44,0-88-.2-131.9,0-13.4.4-14.1,16.4-15.2,4.7,4.8,4.5,10.9,4.5,16.9,0,44.7,0,89.3,0,133.9,0,2,0,4-.3,6-2.1,22.5-15.6,36.8-38.9,37.9-21.9,1-43.9-.5-65.8-1h0Z"/>
    <path class="cls-1" d="M1744.8,432.7c-24.1-7.2-43-4-61.7,10.4-2.5-8.2-.8-13.8,5.7-17.1,2.3-1.2,5-2.1,7.6-2.1,23.9-.2,47.9-.3,71.8-.2,2.3,0,4.6,2,8,3.6-3.7,6.4-6.8,12.2-10.2,17.7-15.5,24.9-31.2,49.6-46.6,74.5-3.1,4.9-7.4,9.7-4.7,17.6,19.5,5.6,40.4-.2,60.2,3.5,1.3,4.9-2,5-4.3,5-25.3.1-50.6.1-75.9,0-2,0-4-.4-5.9-.9-3.1-.8-5.4-5.2-4-8,2.5-4.7,5.2-9.3,8-13.8,15.6-24.8,31.4-49.5,46.9-74.3,3-4.8,7.9-9.4,5.1-16.2h0Z"/>
    <path class="cls-1" d="M898.3,129.3c2.2-1.2,3.8-2.5,5.6-3,11.2-2.9,15.2-.5,15.2,10.9-.1,36.6,2.1,73.2-2.3,109.6-1.1,9.2-2.9,18.5-5.7,27.2-7,22.1-22.4,35.9-44.9,41-8.3,1.9-17.1,2.1-25.7,2.8-1.6.1-3.2-1.5-7-3.3,6.5-2.9,11.2-4.9,16-7,22.9-10.1,37.6-27.4,42.9-51.7,3.1-14.2,5.1-28.9,5.5-43.4.9-27.2.2-54.5.2-83.1h0Z"/>
    <path class="cls-1" d="M1476.2,442c-6-3.2-9.4-5-14.2-7.5,4.5-2.8,8.2-5,13-8,.5-5.8.9-12.3,1.7-18.8,2.9-22.7,15.2-34.4,38.2-35.8,9.2-.6,18.7-1.5,27.4,3.2,2.7,1.4,3.3,2.6,4.5,10.5-5.9-2-11.1-4.4-16.7-5.7-16.8-3.9-27.2,2.4-31.5,18.9-.8,3.2-1.5,6.5-1.7,9.8-.7,14.8,0,22.3,19.3,22.4,3.8,0,7.7.7,11.3,1,.8,5.1-2.4,4.9-4.7,5.1-4.6.5-9.3.3-13.9.9-8.3,1.2-11.5,4.4-12,13.2-.6,12-.4,24-.5,35.9-.1,15.3.3,30.6-.4,45.9-.5,11.3-5.4,13.3-18.4,8.3-2.7-16-.9-32.6-1.3-49.1-.3-16.6,0-33.2,0-50.2h0Z"/>
    <path class="cls-1" d="M1897,403.6c4.4-10.2,7-21.3,14.2-29.6,7.1,1,7.9,6.1,9.6,10.1,9.3,22.1,18.4,44.3,27.6,66.4,7.1,17.2,14.1,34.5,21.3,51.7,3.3,8,6.2,16.3,10.7,23.6,4.4,7.2,10.5,13.2,15.9,19.8-14.7,1-23.1-1.6-31.8-11.4-4.8-5.4-8.4-11.9-11.9-18.3-3.2-5.8-5.5-12-7.9-17.3-15.7-4.6-53.8-5.5-80.2-2.2-2.3-.1-4.6-.3-6.8-.5,2.2-5.2,4.5-10.5,6.8-15.7,2.1,0,4.1,0,6.2,0,.7,4.5,3.1,7.4,7.8,7.4,17.2,0,34.3-.2,51.5-.6,1.7,0,3.3-1.7,4.9-2.6,2.5-7.4-1.5-13.2-3.8-19.2-7.5-19.1-15.4-38-23.1-57-3.6-1.6-7.3-3.2-10.9-4.8h0Z"/>
    <path class="cls-1" d="M2125.1,407.7c4.9-11.5,8.4-23.7,16.8-35.5,3,3.2,5.7,5,6.9,7.6,5.2,11.5,10,23.2,14.8,34.9,11.4,27.7,22.8,55.5,34.2,83.2,3.6,8.6,6.6,17.6,11.2,25.6,4.6,7.8,10.8,14.7,17.6,23.6-5.6-.7-10.3-.2-14.1-1.8-6-2.5-12.5-5.5-16.9-10-5.4-5.6-9.3-12.8-13.2-19.7-3.2-5.7-5.5-12-8-17.3-16.5-4.1-39.5-4.7-78.5-2.5-2.1-1.4-4.2-2.8-6.4-4.2,1-2.3,2.1-4.6,3.1-6.9,2.7,1.1,5.4,2.1,8.1,3.2,18.4,0,36.9.3,55.3,0,3.5,0,7-1.9,10-2.8.1-2.8.6-4.3.2-5.4-8.9-22-17.7-44-27-65.8-1.1-2.5-4.8-3.9-7.3-5.8-2.3-.1-4.6-.3-6.9-.4h0Z"/>
    <path class="cls-1" d="M1662.1,268.3c-13.4,5.7-18.1,3.8-19.1-7.2-.5-5.3-.3-10.6-.3-15.9,0-44.5,0-89.1,0-133.6,0-9.2-.8-18.5-1.4-29.4,3.1-1.4,6.9-3.9,11-4.9,6.2-1.5,9.9,1.9,10.5,8.5.3,4,.3,8,.3,11.9,0,51.2,0,102.3,0,153.5,0,5.9-.7,11.7-1,17.1h0Z"/>
    <path class="cls-1" d="M2881.7,81.8c.8-.6,2.2-2.3,4-2.9,13.1-4.7,17.3-2.1,17.3,11.6.1,56.6,0,113.1,0,169.7,0,2.6-.6,5.2-.8,7.9-1.9,1.2-3.4,2.9-5.2,3.2-8.4,1.5-12.4-.6-13.2-7.5-.7-5.9-.7-11.9-.7-17.9,0-43.9,0-87.8,0-131.8,0-10.6-.8-21.1-1.2-32.4h0Z"/>
    <path class="cls-1" d="M2017.3,539.7v-161c2.2-3.8,8.2-4.2,15.6-4.4,1.4,3.8,3.5,7.8,4.3,12.1.8,3.8.3,8,.3,11.9,0,40.6,0,81.2,0,121.8,0,4,.1,8-.2,12-1.1,12.5-6.2,14.7-20.1,7.7h0Z"/>
    <path class="cls-1" d="M796.9,540.2c-1.3-52.8.4-106.6-1-160.9,4.5-4.4,10-5.2,17.4-3.4,1.1,3.8,3.3,8.1,3.3,12.4.3,47.2.2,94.5.2,141.7,0,2-.2,4-.6,5.9-1.4,7.7-6,10-14.8,7.3-1.2-.4-2.2-1.5-4.6-3.2h0Z"/>
    <path class="cls-1" d="M2525.1,541.3c-.2-6.1-.6-12.6-.6-19.2,0-21.9,0-43.9-.1-65.8-.1-17.4-.2-17.4-8.8-31.6,12.1-4.1,22,.5,31.1,8,5.7-3.2,10.8-6.3,16.1-8.8,8.7-4.1,17.9-5.1,27.1-1.7,2.9,1.1,5.7,3.4,7.8,5.8,1,1.1.9,4,.1,5.5-.7,1.4-3.1,3-4.6,2.9-3.2-.3-6.4-2-9.6-2.4-5.9-.5-12.1-1.7-17.7-.4-15.7,3.6-21.3,12.8-21.1,24.9.4,19.3,0,38.5,0,57.8,0,5.3.2,10.7-.2,15.9-1,12.7-5.1,14.8-19.5,9h0Z"/>
    <path class="cls-1" d="M2631.6,425.5c5.2-3.6,11.2-5.6,18-3.2,3.4,14.2,4.4,91.2,1.4,118.9-5.1,4.5-10.6,3.9-16.8.8-.5-1.5-1.7-3.2-1.7-5-.2-21.2-.2-42.4-.3-63.6-.1-15.8-.4-31.6-.6-48h0Z"/>
    <path class="cls-1" d="M1870.7,480.3c-2.1,0-4.1,0-6.2,0,10.8-25.6,21.7-51.1,32.5-76.7,3.6,1.6,7.3,3.2,10.9,4.8-7.3,2.3-8.9,9-11.6,14.9-8.7,19-17.1,38.1-25.7,57.1h0Z"/>
    <path class="cls-1" d="M2125.1,407.7c2.3.1,4.6.3,6.9.4-7.9,19-16,38-23.7,57.1-3,7.3-5,15-7.5,22.5-2.7-1.1-5.4-2.1-8.1-3.2,10.8-25.6,21.6-51.2,32.4-76.8h0Z"/>
    <path class="cls-1" d="M2089.5,491.4c2.1,1.4,4.2,2.8,6.4,4.2-7.5,16.1-12.9,33.2-21.3,48.3-6.6-.4-6.7-3.6-5.2-6.9,6.6-15.2,13.4-30.4,20.1-45.6h0Z"/>
    <path class="cls-1" d="M696.1,76.2c-3,.9-6.1,1.6-9,2.8-3,1.2-5.6,3.5-8.7,4.2-4.8,1-9.1-.5-11.9-4.9-2.4-3.8-1.9-9.4,1.2-12.8,3.4-3.7,7.5-5,12.4-3.4,5.5,1.8,9.2,7.7,15.9,6.7,0,2.5,0,5,0,7.5h0Z"/>
    <path class="cls-1" d="M1273.8,90.7c-5.8.1-11.4-5.5-11.5-11.5,0-6.4,5-11,11.7-10.7,6.2.2,10.3,4.2,10.3,9.8s-5,12.3-10.5,12.4h0Z"/>
    <path class="cls-1" d="M2645.3,393.7c0,5.8-5.4,12-10.9,12.2-5.3.2-10.9-5.7-11.1-11.9-.2-5.5,3.8-9.8,9.8-10.2,7.1-.5,12.2,3.7,12.2,9.9h0Z"/>
    <path class="cls-1" d="M2205.8,91.8c-6.3-.2-10.3-5-10.1-12.1.2-6.1,5.9-11.1,12-10.4,6,.7,10.8,6.4,10.5,12.4-.3,6.1-5.5,10.3-12.3,10.1h0Z"/>
    <path class="cls-1" d="M1857.8,496c2.3.1,4.6.3,6.8.5-6.1,16.3-11.1,33.1-21.1,47.3-4.7-1.2-5-3.9-4-6.5,5.9-13.8,12.1-27.5,18.2-41.3h0Z"/>
    <path class="cls-1" d="M1244.1,90.5c-6.1.6-11.4-4-11.8-10.3-.5-6.8,3.5-11.6,9.9-12.1,6.4-.4,11.5,3.9,12.1,10.2.6,6-4.2,11.7-10.2,12.2h0Z"/>
    <path class="cls-1" d="M1831.5,86.2c-.2,5.7-5.7,10-12.7,9.9-5.2,0-9.9-5-9.8-10.5,0-6,5.6-11.3,11.7-11.2,6.2,0,11.1,5.3,10.8,11.7h0Z"/>
    <path class="cls-1" d="M789.9,301c6.2.4,10.6,5.8,10,12.4-.5,5.6-5.1,9.8-10.7,9.8-6.3,0-11.6-5.4-11.3-11.5.3-6.2,5.8-11.1,12-10.8h0Z"/>
    <path class="cls-1" d="M759.5,301c6,.5,10.5,6.4,9.7,12.6-.7,5.4-5.5,9.7-10.8,9.6-6.4-.1-10.9-5.2-10.6-11.7.3-6.6,5.4-11.1,11.7-10.5h0Z"/>
    <path class="cls-1" d="M696.1,76.2c0-2.5,0-5,0-7.5,2.3-2.2,4.3-5.2,7-6.4,4.6-2.1,9.6-.1,12.2,3.6,2.5,3.6,2.7,9.6.1,13-3.1,4.2-7.6,5.6-12.2,3.6-2.8-1.2-4.8-4.1-7.1-6.3h0Z"/>
    <polygon class="cls-1" points="1640.3 527.6 1640.7 526.8 1640 527.2 1640.3 527.6"/>
    <path class="cls-1" d="M1412,536c-2.6,1.5-5.2,2.9-7.8,4.3l-.2-.2c2.7-1.3,5.4-2.6,8.1-3.9l-.2-.3h0Z"/>
    <path class="cls-1" d="M1640,527.2c-1,1.9-2.1,3.8-3.1,5.7h.4c1-1.8,2-3.5,3-5.3,0,0-.3-.3-.3-.3h0Z"/>
    <path class="cls-1" d="M1636.9,532.9l-.6-.4s1,.4,1,.4-.4,0-.4,0h0Z"/>
  </g>
</svg>