<?xml version="1.0" encoding="UTF-8"?><svg id="Layer_2" xmlns="http://www.w3.org/2000/svg" width="2911.77" height="584.67" viewBox="0 0 2911.77 584.67"><defs><style>.cls-1{fill:#bf9c76;stroke-width:0px;}</style></defs><g id="Layer_1-2"><path class="cls-1" d="M231.02,490.22c-4.58,4.29-8.32,7.92-12.18,11.41-19.28,17.43-41.83,25.35-67.85,23.46-23.9-1.74-41.95-13.07-52.79-34.15-5.08-9.89-8.74-21.06-10.36-32.05-2.32-15.73-2.23-31.83-3.05-47.77-.38-7.31,0-14.69-.75-21.96-3.04-29.66-30.45-46.24-58.35-35.35-4.94,1.93-9.47,4.91-14.36,6.98-2.28.96-5,.91-8.56,1.48-.98-3.73-2.32-6.74-2.5-9.82-2.96-51.32,18.18-91.82,57.02-123.7,20.64-16.95,44-24.76,70.79-15.56,2.41.83,5.12.8,9.05,1.36.79-4.93,2.27-9.3,2.06-13.59-1.39-28.21,9.38-52.02,26.14-73.68,5.29-6.84,10.75-13.63,16.77-19.83,23.02-23.75,35.66-52.68,42.98-84.38,1.43-6.18,3.03-12.32,5.69-23.06,2.5,8.29,3.93,11.87,4.65,15.58,7.05,36.86,21.91,69.7,48.74,96.63,5.15,5.17,9.57,11.09,14.02,16.91,15.79,20.68,25.45,43.57,25.21,70.09-.04,4.43,1.32,8.87,2.19,14.31,6.24-.92,11.5-1.27,16.53-2.52,17.2-4.24,32.96-.51,48.08,7.82,17.27,9.51,30.98,23.03,42.7,38.56,18.55,24.58,29.14,52.19,29.7,83.27.17,9.55.1,9.55-5.32,22.15-4.64-1.89-9.25-4-14.02-5.64-6.87-2.36-13.74-5.56-20.83-6.31-20.51-2.17-38.24,10.74-42.9,30.86-1.64,7.06-1.92,14.5-2.23,21.79-.61,14.64-.53,29.31-1.25,43.94-.72,14.79-4.24,28.98-11.14,42.19-11.43,21.87-29.49,33.67-54.12,35.51-26.03,1.94-48.54-6.14-67.76-23.65-3.85-3.5-7.59-7.12-11.99-11.26ZM101.25,276.64c2.11,3.68,3.17,6.06,4.7,8.1,7.71,10.29,17.34,11.87,27.53,4.67,13.02-9.2,16.57-24.97,8.76-38.89-8.57-15.25-28.03-23.88-46.4-20.45-11.43,2.13-21.26,7.63-30.03,15.08-21.68,18.4-34.74,41.83-39.91,69.65-.67,3.6.42,7.52.62,10.25,1.8,1.35,2.31,2.06,2.86,2.09,5.28.22,10.56.45,15.85.45,27.44,0,46.94,14.48,54.14,41.21,2.58,9.59,4.07,19.57,5.1,29.47,1.78,17.22,2.45,34.56,4.26,51.78,2.45,23.25,15.43,39.39,36.22,49.04,22.81,10.59,51.61,1.41,64.84-19.95,10.2-16.46,8.93-38.29-3.05-52.33-13.7-16.05-33.36-12.69-40.76,7.13-1.37,3.66-1.46,7.8-2.17,11.71-.55,3.06-1.12,6.12-2.06,11.18-3.48-2.69-5.99-3.78-7.19-5.68-8.03-12.73-6.7-25.35,1.46-37.44,3.66-5.43,7.97-10.43,12.17-15.85-2.43-6.86-4.61-13.1-6.86-19.32-5.46-15.09-5.08-30.13.93-44.89,3.01-7.38,6.57-14.58,10.43-21.55,7.1-12.82,14.45-25.51,21.97-38.08,15.17-25.37,26.47-52.24,32.61-81.23.58-2.73-.31-6.89,5.4-7.48,1.2,4.36,2.57,8.7,3.59,13.13,4.35,18.92,10.59,37.17,19.63,54.36,5.89,11.2,12.32,22.11,18.52,33.14,7.18,12.77,14.68,25.38,21.49,38.34,9.8,18.65,11.46,37.98,3.7,57.92-2.12,5.44-3.37,11.22-4.93,16.5,4.02,5.22,7.43,9.29,10.44,13.64,10.01,14.48,10.07,28.06.14,42.61-1.44,2.11-3.56,4.09-6.99,1.46,0-4.22.29-8.81-.07-13.35-.53-6.79-2.97-12.92-7.56-18.11-9.33-10.57-21.15-11.55-31.49-1.91-12.19,11.36-16.59,25.52-12.73,41.8,6.7,28.3,37.84,45.79,65.52,36.14,22.4-7.81,37.14-23.34,40.58-47.48,1.97-13.82,2.65-27.83,3.55-41.78,1.07-16.68,3.02-33.19,8.42-49.09,6.64-19.56,21.2-30.26,40.74-34.25,6.35-1.3,13.22.04,19.85-.02,3.71-.03,7.43-.45,11.05-.69.03-37.04-24.33-77.56-55.21-92.45-5.32-2.57-11.25-4.67-17.06-5.25-17.85-1.77-32.99,3.8-43.11,19.36-8.68,13.34-5.49,29.84,7.02,39.17,11.29,8.42,22.48,5.56,29.1-7.38,1.03-2.01,2.35-3.86,4.39-7.18,6.7,10.78,5.33,19.5.18,27.86-5.26,8.55-13.45,12.74-23.34,13.36-9.78.61-18.5-2.74-25.82-8.96-15.69-13.32-21.58-30.33-15.86-50.19,2.35-8.16,6.88-15.81,11.22-23.22,3.17-5.42,5.06-10.71,4.34-16.98-3.2-28.01-11.28-53.51-35.79-70.74-1.63-1.15-3.08-2.54-4.64-3.8-15.87-12.78-28.24-28.16-35.62-47.35-1.09-2.82-1.72-6.59-6.54-5.9-.91,1.64-2.08,3.27-2.77,5.08-7.59,19.84-20.22,35.83-36.87,48.83-3.67,2.87-7.23,5.89-10.73,8.97-12.39,10.86-20.93,24.05-24.21,40.38-1.44,7.18-2.75,14.4-4.49,21.51-1.89,7.7.22,14.01,4.31,20.69,4.81,7.85,9.42,16.31,11.72,25.13,5.99,22.95-7.65,47.21-29.34,54.59-9.4,3.2-18.37,2.48-26.95-2.43-6.02-3.45-10.25-8.59-12.3-15.17-1.77-5.69-3.04-11.61,3.51-18.93ZM231.02,260.79c-7.01,14.09-11.81,25.85-18.42,36.48-7.01,11.27-15.9,21.36-23.69,32.16-4.28,5.93-8.28,12.11-11.87,18.48-5.43,9.63-6.72,20.14-5.13,30.99,1.76,11.97,5.13,15.7,17.83,17.18,14.05,1.64,25.3,7.52,34.07,18.57,1.91,2.41,4.63,4.18,6.45,5.77,1.96-.64,2.67-.72,3.18-1.08,1.07-.76,2.25-1.52,3.02-2.56,9.72-13.17,22.62-20.35,39.06-20.91,8.04-.27,11.55-5.43,13.73-12.29,4.1-12.95,1.98-25.32-4.78-36.53-6.52-10.8-13.88-21.19-21.72-31.07-11.28-14.22-21.13-29.08-26.8-46.48-.76-2.34-2.44-4.38-4.92-8.71Z"/><path class="cls-1" d="M2573.23,262.72c25.25,3.38,35.09-1.1,44.02-20.68,4.39-9.62,6.91-20.1,10.08-30.25,3.17-10.16,5.68-20.55,9.19-30.58,15.12-43.17,74.75-45.56,98.11-13.9,11.89,16.13,18.64,33.84,17.77,53.92-.57,12.98,4.29,23.37,13,32.3,11.24,11.53,34.01,15.11,48.28,7.79,7.61-3.9,12.51-10.19,13.93-18.46,1.24-7.18,1.66-14.57,1.69-21.86.16-37.97.19-75.95,0-113.92-.04-8.54-1.15-17.08-1.82-26.48,6.84-4.42,14-6.24,23.01-1.03.34,3.24,1.09,7.06,1.1,10.88.08,44.64.1,89.27,0,133.91-.01,5.3-.31,10.7-1.4,15.87-3.96,18.86-15.97,30.22-35.4,32.89-21.92,3.01-42.72,1.24-58.79-16.8-1.27-1.43-3.24-2.25-4.95-3.25-.52-.3-1.24-.24-3.38-.6-2.86,3.24-6.58,6.86-9.61,10.99-22.75,30.94-75.48,34.74-100.77,6.54-3.05-3.41-6.76-6.23-9.62-8.82-2.36.18-4.08-.22-4.89.46-12.52,10.54-27.23,12.67-43.02,12.61-80.61-.28-161.23-.17-241.84-.29-6.64,0-13.36-.25-19.91-1.26-20.06-3.08-30.61-14.11-32.95-34.31-.69-5.93-.49-11.97-.5-17.97-.04-33.98-.02-67.96-.03-101.93,0-4-.28-8.01-.01-11.99.79-11.5-2.84-19.54-15.41-21.58-2.22-.36-4.18-2.3-7.19-4.04,2.62-2.06,3.98-4.04,5.51-4.18,8.6-.76,17.26-1.57,25.87-1.39,8.13.17,12.15,4.42,12.8,12.35.44,5.3.31,10.65.32,15.98.03,39.31-.04,78.61.08,117.92.02,7.3.11,14.73,1.36,21.88,2.05,11.74,9.6,18.75,21.38,20.69,4.57.75,9.29.86,13.94.86,60.63.03,121.25.03,181.88-.09,5.23-.01,10.46-.89,16.64-1.45.99-4.15,2.6-7.83,2.63-11.53.18-24.27-4.38-47.71-13.75-70.11-4.66-11.14-10.95-21.32-20-29.58-11.79-10.76-25.33-13.89-40.75-9.79-16.45,4.37-28.09,14.86-36.78,28.88-4.18,6.74-7.45,14.03-11.12,21.05-6.8-2.39-9.17-6.29-6.06-10.56,7.04-9.68,13.98-19.49,21.7-28.62,22.6-26.74,62.34-28.36,87.88-6.48,9.75,8.35,17.52,18.21,23.75,29.36,10.19,18.24,16.5,37.78,19.62,58.4,1.38,9.14,2.84,18.26,4.4,28.26ZM2633.19,247.66c8.48,13.4,18.62,22.75,31.88,28.38,19.25,8.17,36.85,3.62,50.01-12.67,5.97-7.39,10.2-15.81,11.91-25.04,3.44-18.63,2.76-37.14-4.25-55.03-3.21-8.2-8.02-15.35-14.9-20.93-16.81-13.62-38.55-9.91-49.61,8.71-3.03,5.1-5.44,10.73-7.19,16.41-6.07,19.67-11.74,39.46-17.84,60.17Z"/><path class="cls-1" d="M1500.13,271.44c-3.25-.65-6.77-.7-9.68-2.06-7.76-3.64-15-2.82-23.11-.5-9.47,2.7-19.56,4.36-29.4,4.44-46.64.42-93.28.4-139.92-.07-10.53-.11-21.18-1.96-31.49-4.28-6.77-1.52-12.84-1.34-19.54.08-10.35,2.18-20.97,4.21-31.48,4.26-69.29.33-138.59.14-207.88.05-5.32,0-10.68-.13-15.96-.74-22.25-2.6-33.5-14.11-35.32-36.19-.49-5.96-.35-11.98-.36-17.98-.04-31.32-.02-62.63-.04-93.95,0-6-.34-12-.09-17.99.48-11.4-3.35-19.41-15.46-22.03-2.25-.49-4.16-2.58-6.83-4.33,10.75-4.41,27.82-5.99,35.12-3.54,4.24,1.42,6.56,4.71,6.97,8.91.57,5.95.7,11.96.71,17.94.06,39.31.01,78.62.07,117.93,0,5.99-.14,12.04.64,17.96,2.05,15.54,10.46,23.76,25.95,25.62,5.27.63,10.64.62,15.96.62,64.63.01,129.26.03,193.89-.13,7.29-.02,14.61-.82,21.83-1.83,2.3-.32,4.34-2.49,7.63-4.51-2.92-3.73-5.03-6.9-7.62-9.62-6.87-7.22-14.44-13.83-20.81-21.46-8.21-9.84-13.38-21.42-16.07-34.03-5.13-24.07,2.96-45.98,23.84-58.91,27.8-17.22,57-17.91,85.25-1.37,26.23,15.34,34.09,47.44,19.87,75.3-7.15,14-18.35,24.36-30.89,33.46-4.84,3.52-9.76,6.96-14.29,10.85-3.11,2.67-1.66,8.89,2.24,9.75,5.15,1.14,10.45,2.21,15.69,2.23,43.97.15,87.95.28,131.92-.16,9.19-.09,18.48-2,27.47-4.13,6.37-1.51,8.26-6.73,5.61-12.42-1.68-3.61-3.9-6.96-5.85-10.45-4.87-8.72-10.24-17.21-14.47-26.23-9.34-19.93-18.73-39.77-32.8-56.98-1.13-1.38-1.24-3.59-2.04-6.08,1.91-1.77,3.54-3.99,5.72-5.2,22.53-12.48,46.51-20.37,72.48-19.1,10.46.51,21.38,2.49,31.04,6.41,36.08,14.61,46.57,57.52,22.14,87.86-8.89,11.04-20.28,19.14-31.98,26.91-5.36,3.56-12.35,5.39-15.32,13.63,2.05,1.89,4.37,4.02,6.7,6.16-.02,1.97-.03,3.94-.05,5.91ZM1309.21,181.26c-.59-5.95-.73-11.99-1.88-17.83-1.99-10.11-6.98-18.68-15.34-24.96-28.03-21.08-71.37-3.07-74.97,31.79-3.31,32.05,11.12,56.6,35.9,75.74,4.61,3.56,9.8,3.89,14.95.83,24.93-14.79,42.93-33.93,41.34-65.57ZM1483.03,247.21c8.53-1.64,14.92-7.69,21.65-13.01,20.26-16.01,26.95-37.31,23.51-62.26-2.96-21.48-17.13-34.66-38.72-36.18-18.36-1.3-35.84,2.41-52.38,10.31-3.43,1.64-6.25,4.56-9.87,7.27,1.38,3.69,2.2,6.84,3.67,9.67,8.27,15.97,16.62,31.89,25.09,47.75,4.39,8.22,8.84,16.43,13.73,24.36,3.11,5.05,6.51,10.18,13.32,12.1Z"/><path class="cls-1" d="M1709.73,268.41c22.96-14.25,25.62-18.83,25.76-45.78.17-32.64.05-65.27.04-97.91,0-3.33-.15-6.66-.15-9.99,0-8.02-2.64-14.17-10.86-17.17-2.79-1.02-5.1-3.33-10.21-6.81,13.91-3.58,24.88-3.48,35.85-1.9,4.96.71,7.97,4.74,8.08,9.88.08,3.98-.34,7.98-.53,11.97-1.23,25.28-2.58,50.55-3.59,75.84-.17,4.26,1.14,8.57,1.69,12.37,5.77,1.26,7.28-2.11,9.15-4.69,6.63-9.17,12.82-18.67,19.82-27.55,8.28-10.51,18.06-19.53,29.54-26.62,13.3-8.21,27.26-9.69,42.18-5.22,17.5,5.24,30.26,16.34,40.05,31.28,10.01,15.26,16.02,32.19,19.42,49.97,2.25,11.75,3.38,23.71,5.16,35.56,1.53,10.21,3.95,12.64,13.9,13.52,5.3.47,10.65.42,15.97.42,77.26,0,154.53,0,231.79-.1,7.31,0,14.72-.05,21.89-1.24,11.91-1.96,18.89-9.93,20.17-21.5.5-4.54-3.54-8.13-7.45-6.35-4.22,1.93-8.13,4.54-12.36,6.45-36.54,16.45-74.38-6.35-75.39-46.39-.92-36.55,15.07-65.35,53.72-76.97,17.4-5.23,35.32-6.54,53.37-5.87,6.41.24,9.68,3.3,10.74,9.68.76,4.57.94,9.27.95,13.91.07,29.31.13,58.61-.08,87.92-.05,6.61-.37,13.43-2.02,19.77-4.08,15.68-14.51,25.18-30.67,27.54-6.55.96-13.28,1.06-19.92,1.06-155.19,0-310.39-.04-465.58-.12-4.65,0-9.36,0-13.92-.76-2.17-.36-4.03-2.52-6.51-4.19ZM1744.91,261.55c7.64,5.15,15.14,4.1,22.33,4.12,35.84.12,71.69.06,107.54,0,4.64,0,9.31-.1,13.91-.64,6.6-.77,9.89-3.75,9.67-10.32-.38-11.25-1.24-22.53-2.79-33.68-2.3-16.5-6.66-32.5-14.28-47.45-4.87-9.56-10.9-18.25-19.47-24.89-12.85-9.95-26.69-11.68-40.8-3.29-6.77,4.02-13.26,8.96-18.8,14.55-25.16,25.39-42.67,55.72-55.41,88.89-1.56,4.06-1.35,8.8-1.89,12.71ZM2227.29,161.64c-.1,0-.2,0-.3,0,0-10.62.27-21.24-.11-31.84-.19-5.31-3.74-8.17-9.11-8.67-1.98-.18-3.98-.23-5.96-.12-47.69,2.68-78.17,58.33-55.04,100.46,13.32,24.25,39.57,26.54,57.08,4.87,8.64-10.7,12.73-23.25,13.36-36.82.43-9.27.08-18.58.08-27.88Z"/><path class="cls-1" d="M942.34,505.49c7.2-2.89,8.41-10.01,11.09-15.85,14.71-32.08,29.18-64.27,43.76-96.41,2.2-4.85,4.34-9.75,6.9-14.41,3.15-5.73,8.29-7.79,15.16-6.69,4.41.71,7.58,3.29,8.31,7.51.89,5.21,1.05,10.58,1.07,15.89.1,27.97.05,55.94.06,83.92,0,5.33.04,10.66.09,15.98.15,17.61,3.35,34.31,15.68,48.58-16.57.4-26.57-5.07-31.24-19-3.11-9.3-4.69-19.46-5-29.3-.74-23.29-.25-46.61-.39-69.92-.04-6.5-.56-12.99-.82-18.74-4.77-2.23-6.53.08-7.7,2.38-3.61,7.12-7.04,14.34-10.33,21.62-14.25,31.56-28.37,63.18-42.66,94.72-2.67,5.89-4.44,12.45-9.33,16.62-6.91-.78-7.48-6.19-9.31-10.1-15.18-32.6-30.11-65.31-45.25-97.93-2.79-6.01-5.87-11.96-9.51-17.48-1.05-1.59-4.54-2.23-6.84-2.09-1.41.09-3.6,2.34-3.84,3.88-.94,5.87-1.66,11.84-1.69,17.78-.17,27.3-.06,54.61-.12,81.92-.01,5.98-.15,11.98-.66,17.94-.13,1.5-1.93,2.85-4.52,6.41-.94-5.25-1.93-8.23-1.94-11.21-.1-47.29-.08-94.57-.09-141.86,0-1.33.07-2.66.11-3.99.16-5.55.93-10.81,7.22-12.84,7.89-2.55,15.1-.17,18.95,6.58,2.63,4.61,4.74,9.54,6.98,14.37,14.84,32.02,29.57,64.1,44.53,96.06,2.72,5.81,4.02,12.9,11.31,15.69Z"/><path class="cls-1" d="M745.98,124.95c.38,7.05.95,12.9.97,18.76.1,27.3-.03,54.61.1,81.91.03,6.64.14,13.38,1.28,19.89,2.02,11.53,8.52,18.36,19.88,19.06,13.9.86,27.96.72,41.85-.3,11.86-.87,19.22-8.54,22.08-20.01,1.28-5.13,2.3-10.49,2.29-15.75-.03-32.56,1.7-65.15-1.36-97.74,5.56-6.55,12.22-6.92,20.73-4.28.61,4.07,1.66,7.86,1.68,11.66.14,29.3.14,58.6.03,87.9-.02,4.63-.42,9.34-1.32,13.88-3.47,17.6-14.37,28.7-31.76,31.71-21.09,3.65-42.5,2.66-63.68,0-8.91-1.12-16-6.3-21.16-13.8-2.58-3.75-5.15-7.51-8.6-12.54-4.57,4.05-8.48,7.32-12.16,10.83-28.25,26.96-66.71,22.63-86.61-10.92-17.89-30.18-19.56-61.78-2.7-93.28,14.54-27.18,48-46.31,85.26-26.66,1.77.93,3.59,1.78,5.25,2.88,7.59,5.04,14.67,5.59,21.24-1.84.68-.77,2.46-.56,6.7-1.37ZM728.18,193.68c-.63-14.18-1.65-28.1-6.29-41.46-5.53-15.94-16.76-25.36-33.67-27.09-17.08-1.75-29.66,5.9-38.06,20.35-3.3,5.69-5.92,11.97-7.7,18.31-5.86,20.89-6.14,42.13-.93,63.12,1.88,7.58,5.29,15.2,9.66,21.68,12.16,18.02,34.58,21.81,52.64,9.61,10.39-7.02,17.21-16.83,19.56-29.05,2.24-11.7,3.24-23.63,4.78-35.47Z"/><path class="cls-1" d="M1201.25,378.51c1.69-.94,2.78-1.74,4-2.2,11.32-4.29,17.79-.28,17.54,12.98-.14,7.32-.12,14.66.16,21.98.2,5.22.98,10.42,1.66,17.23,5.38-1.45,9.75-2.15,13.73-3.79,10.16-4.18,20.59-5.5,31.34-3.68,16.71,2.83,27.86,12.09,31.79,28.97,1.05,4.52,1.99,9.18,2.02,13.79.15,23.98.02,47.96-.13,71.94-.01,1.92-.85,3.83-1.28,5.62-12.18,5.3-17.14,3.31-18.32-7.47-.51-4.62-.36-9.31-.38-13.97-.06-16.66.36-33.33-.29-49.96-.31-7.85-1.3-16.19-4.32-23.32-8.74-20.72-37.04-24.04-51.27-6.45-1.98,2.45-3.28,5.83-3.83,8.97-.79,4.56-.76,9.28-.8,13.94-.17,19.32-.19,38.64-.38,57.96-.05,5.31-.15,10.68-.91,15.92-.69,4.82-5.74,8.49-10.02,7.99-4.48-.52-7.6-3.39-8.4-7.43-1.02-5.17-1.09-10.58-1.1-15.89-.1-29.98.03-59.96-.09-89.94-.07-17.27-.45-34.54-.72-53.19Z"/><path class="cls-1" d="M2323.04,432.13c7.01,1.32,12.6-1.26,18.37-5.24,5.52-3.82,10.66-.86,11.43,5.72.46,3.96.49,7.98.49,11.97.03,38,.04,75.99-.02,113.99,0,4.65-.16,9.35-.87,13.92-.79,5.06-5.17,8.34-9.86,8.15-4.86-.19-8.85-3.63-9.24-8.58-.67-8.54-1.02-17.11-1.55-26.51-4.97,0-8.74-.3-12.45.06-7.91.77-15.78,2.57-23.69,2.73-16.82.33-30.06-7.33-37.64-22.04-14.76-28.65-14.74-58.06,1.34-86.04,12.4-21.57,40.09-26.54,61.09-12.59,1.47.98,2.09,3.23,3.12,4.89-1.84-.73-3.66-1.6-5.56-2.17-22.43-6.74-36.51-.16-43.53,21.65-7.12,22.1-7.28,44.65.69,66.6,7.19,19.81,23.15,27.02,43.19,20.71,11.27-3.55,14.19-6.65,14.4-18.41.39-21.27-.15-42.56.33-63.82.23-10.05-2.92-18.16-10.03-24.98Z"/><path class="cls-1" d="M778.22,547.42c-22.39-.59-35.13-10.67-43.62-27.17-3.91-7.6-7.51-15.36-11.54-23.64-7.98-.53-15.2-1.31-22.43-1.41-13.29-.19-26.59.32-39.87-.03-10.84-.29-17.37,4.48-21.08,14.51-3.22,8.71-7.17,17.17-11,25.64-1.26,2.79-3.17,5.29-4.81,7.98-6.04-3.82-3.18-7.64-1.77-11.02,9.49-22.69,19.11-45.31,28.71-67.95,10.37-24.48,20.67-48.98,31.2-73.39,2.56-5.93,3.94-12.76,11.41-17.38,2,2.06,4.67,3.9,6.06,6.44,2.54,4.64,4.39,9.67,6.42,14.58,14.69,35.64,29.32,71.3,44.06,106.92,3.3,7.98,6.24,16.24,10.67,23.57,4.34,7.17,10.36,13.33,17.6,22.36ZM715.39,484.28c-.41-4.33,0-7.78-1.13-10.61-7.64-19.04-15.54-37.98-23.53-56.87-1.31-3.09-3.6-5.55-9.42-3.92-10.06,20.91-20.48,42.92-27.91,66.23-.5,1.56.82,3.7,1.24,5.38,15.67,4.66,41.85,4.78,60.74-.21Z"/><path class="cls-1" d="M1135.81,535.75c-2.1,2.44-3.75,5.67-6.38,7.19-11.54,6.67-24.14,7.31-36.68,4.02-18.72-4.91-29.03-23.13-24.24-41.86,2.49-9.74,9.27-15.87,18.01-20.08,10.98-5.29,22.93-6.48,34.8-7.9,6.49-.78,13-1.36,20.25-2.1,4.38-13.83,1.7-25.83-5.3-36.65-8.62-13.32-31.66-14.82-44.33-3.26-3.85,3.51-6.75,8.08-10,12.07-5.81.13-7-3.35-6.36-7.87,1.04-7.34,5.82-12.01,12.38-14.34,16.02-5.7,32.49-6.65,49-2.42,11.02,2.82,18.87,9.98,22.67,20.61,2.43,6.79,4.47,14.1,4.69,21.24.69,22.56.47,45.15.53,67.73,0,1.97-.39,3.96-.81,5.89-1.1,5.07-6.37,7.88-10.68,4.89-5.54-3.85-10.81-7.6-17.97-6.75,12.27-15.09,10.03-31.88,6.67-49.81-14.22-4.16-26.9-1.71-38.81,4.97-11.18,6.27-15.83,17.24-13.07,28.64,2.97,12.26,13.08,20.49,26.32,19.97,6.49-.25,12.89-2.71,19.33-4.18Z"/><path class="cls-1" d="M2821.34,448.54c-1-13.68,4.22-20.69,14.05-24.07,14.78-5.08,30.05-5.91,45.33-2.8,12.72,2.59,21.45,10.47,25.8,22.66,2,5.6,3.7,11.55,4.1,17.44,1.79,26.52,1.07,53.06.6,78.37-10.54,10.2-14.77-2.53-22.77-3.79-3.31,1.88-7.29,4.2-11.31,6.44-10.34,5.74-21.56,6.77-32.97,5.35-16.6-2.07-27.93-13.69-29.95-30.03-1.96-15.82,5.03-28.36,21.48-34.01,11.18-3.85,23.3-5.07,35.06-7.12,5.8-1.01,12.08.47,17.72-3.98,4.13-11.88,1.04-23.41-5.16-33.84-8.47-14.28-33.06-16.02-45.75-3.73-2.82,2.73-4.43,6.71-7.24,9.45-1.66,1.62-4.57,1.95-8.99,3.67ZM2888.84,486.61c-17.22-3.48-30.01-1.7-40.72,5.44-10.95,7.3-15.04,19.32-10.68,31.44,3.86,10.72,14.22,17.16,26.86,16.69,12.65-.47,24.84-9.21,26.17-20.53,1.29-11.03,2.59-22.44-1.64-33.04Z"/><path class="cls-1" d="M2451.36,539.91c-.18.64-.16,1.48-.57,1.89-7.98,7.93-18.17,6.84-28.03,6.55-8.98-.26-16.84-3.8-23.28-10.04-16.04-15.55-12.31-41.77,7.45-52.41,11.41-6.14,24.11-7.11,36.62-8.8,6.47-.87,13.39.71,20.13-3.97,4.31-13.02,1.68-25.65-6.68-36.71-8.89-11.76-31.6-12.15-43.26-1.31-2.87,2.67-4.62,6.54-7.43,9.29-1.71,1.67-4.49,2.24-6.98,3.39-2.23-11.67-.31-17.95,8.35-21.59,18.39-7.72,37.44-8.9,56.37-1.91,9.25,3.42,15.28,10.84,18.19,20.03,2.39,7.54,4.49,15.51,4.68,23.35.6,23.89.22,47.8.22,72.95-3.84,1.04-9.17,3.88-10.47,2.6-8.17-7.99-16.99-4.7-25.86-2.91,6.69-7.1,16.08-12.55,15.76-24.08-.29-10.27,2.68-21.05-3.74-31.03-14.72-2.57-28.11-.29-40.18,7.8-9.5,6.37-13.09,16.92-10.05,27.99,2.92,10.62,10.12,17.08,20.92,18.68,5.83.86,11.88.22,17.84.25Z"/><path class="cls-1" d="M1404.28,540.38c-14.82,12.09-30.79,10.57-46.44,2.73-11.77-5.9-16.47-17-16.45-29.83.02-12.44,6.24-21.39,17.06-27.24,11.41-6.16,24.06-7.26,36.57-8.94,6.47-.87,13.4.6,19.93-4.26,4.21-11.51,2.15-22.98-4.32-33.52-8.4-13.68-31.04-16.16-44.13-5.01-3.46,2.95-5.59,7.43-8.93,10.56-1.53,1.44-4.53,1.31-6.87,1.89-.56-2.44-1.92-5.02-1.52-7.29,1.26-7.07,5.76-11.99,12.42-14.4,16.03-5.81,32.48-6.78,49.02-2.62,11.88,2.99,19.87,10.98,23.43,22.44,2.54,8.17,4.4,16.84,4.7,25.35.71,20.58.32,41.2.36,61.8,0,1.33-.1,2.66-.27,3.98-.92,7.04-7.11,10.38-12.86,6.38-4.35-3.03-7.87-7.3-13.93-6.38l.15.28c6.41-16.26,9.85-32.67,3.09-49.98-14.63-4.47-27.84-1.47-40.06,6.13-10.16,6.31-13.14,16.17-11,27.61,2.01,10.73,10.31,18.35,22.02,19.75,5.87.7,11.88.28,17.83.37l.22.2Z"/><path class="cls-1" d="M2750.43,510.25c6.01-2.12,6.7-7.98,8.54-12.72,7.24-18.6,14.09-37.36,21.2-56.02,1.89-4.95,3.96-9.87,6.44-14.53.66-1.23,3.18-1.47,5.31-2.36,3.17,6.1-.08,10.8-1.79,15.4-12.75,34.31-25.58,68.6-38.65,102.79-3.32,8.67-6.95,17.35-11.6,25.36-6.4,11.04-15.85,17.89-29.56,16.27-.63-.07-1.22-.47-2.22-.88.21-4.66,4.58-3.3,6.92-4.35,7.56-3.38,13.4-8.48,17.8-15.45,4.55-7.22,5.8-14.47,2.47-22.71-12.71-31.47-25.24-63.02-37.62-94.63-4.02-10.28-11.49-17.47-21.51-23.85,23.93-4.28,35.16.56,43.37,19.23,7.76,17.66,14.28,35.86,21.71,53.67,2.21,5.31,2.94,11.81,9.19,14.77Z"/><path class="cls-1" d="M1568.61,491.15c-4.6,9.74-.95,19.12,2.95,28.26,4.07,9.53,10.63,17.68,20.91,19.88,9.45,2.02,19.47,1.35,29.32,1.87.37,3.62-2.98,3.91-5.1,4.56-34.26,10.64-63.38-5.76-71.22-40.6-3.85-17.11-3.33-34.35,2.96-51.02,11.44-30.31,42.39-42.68,71.76-28.79,17.28,8.17,29.7,33.59,25.28,52.07-1.17,4.9-4.52,8.23-9.56,8.93-4.58.64-9.26.64-13.9.69-11.96.11-23.91-.01-35.87.16-5.92.09-12.04-.32-17.54,4ZM1622.23,477.19c4.89-14.43,1.72-26.98-6.47-38.14-9.8-13.35-26.74-13.76-37.85-1.49-7.95,8.77-10.94,19.62-12.04,31.06-.62,6.39,2.46,10.32,9,10.59,11.95.49,23.93.5,35.88.28,3.81-.07,7.6-1.48,11.49-2.3Z"/><path class="cls-1" d="M1500.13,271.44c.02-1.97.03-3.94.05-5.91,14.66.09,29.32.29,43.98.23,5.31-.02,10.69-.25,15.93-1.07,12.61-1.95,20.28-9.74,23.05-21.88,1.31-5.77,1.37-11.91,1.38-17.88.04-43.98-.02-87.96-.17-131.93-.04-13.45.44-14.06,16.39-15.25,4.66,4.76,4.46,10.9,4.46,16.86.04,44.65-.02,89.29-.07,133.94,0,2-.1,4-.28,5.99-2.13,22.49-15.62,36.83-38.9,37.89-21.88,1-43.87-.55-65.82-.98Z"/><path class="cls-1" d="M1744.76,432.71c-24.14-7.19-42.98-3.99-61.67,10.39-2.54-8.23-.79-13.82,5.74-17.08,2.32-1.16,5.04-2.12,7.59-2.14,23.95-.23,47.9-.32,71.85-.16,2.28.02,4.55,2.01,7.98,3.62-3.7,6.44-6.78,12.21-10.23,17.74-15.5,24.85-31.15,49.6-46.61,74.48-3.06,4.92-7.41,9.65-4.7,17.62,19.53,5.63,40.41-.18,60.19,3.54,1.27,4.93-1.98,5.02-4.31,5.03-25.29.13-50.59.13-75.88.08-1.97,0-3.96-.43-5.89-.9-3.07-.75-5.45-5.19-4.01-7.96,2.46-4.7,5.16-9.29,8-13.79,15.62-24.77,31.4-49.45,46.9-74.29,3.01-4.83,7.9-9.42,5.05-16.17Z"/><path class="cls-1" d="M898.28,129.33c2.15-1.17,3.78-2.52,5.63-3,11.25-2.93,15.25-.46,15.21,10.86-.12,36.56,2.09,73.19-2.26,109.63-1.1,9.19-2.89,18.45-5.69,27.25-7.03,22.07-22.36,35.89-44.89,40.99-8.35,1.89-17.11,2.12-25.71,2.75-1.56.11-3.25-1.48-6.99-3.32,6.52-2.87,11.25-4.93,15.97-7.02,22.86-10.12,37.57-27.43,42.92-51.68,3.13-14.2,5.09-28.87,5.55-43.39.86-27.21.25-54.47.25-83.07Z"/><path class="cls-1" d="M1476.22,442c-5.98-3.19-9.39-5-14.17-7.55,4.54-2.79,8.15-5,12.96-7.95.51-5.79.87-12.34,1.71-18.84,2.94-22.73,15.22-34.41,38.16-35.83,9.23-.57,18.67-1.46,27.39,3.21,2.68,1.43,3.31,2.63,4.48,10.5-5.86-2.05-11.14-4.44-16.67-5.73-16.76-3.92-27.16,2.43-31.49,18.87-.84,3.2-1.49,6.52-1.65,9.82-.73,14.84.1,22.31,19.3,22.42,3.85.02,7.7.67,11.34,1,.8,5.1-2.43,4.9-4.74,5.14-4.63.49-9.34.28-13.94.93-8.26,1.16-11.51,4.4-11.96,13.23-.6,11.96-.41,23.96-.5,35.94-.12,15.31.27,30.64-.45,45.92-.53,11.27-5.37,13.28-18.45,8.26-2.69-16.02-.95-32.62-1.26-49.12-.31-16.6-.07-33.2-.07-50.23Z"/><path class="cls-1" d="M1897,403.58c4.39-10.18,7-21.3,14.16-29.62,7.07.99,7.93,6.08,9.64,10.15,9.28,22.1,18.4,44.26,27.56,66.41,7.12,17.23,14.14,34.5,21.34,51.69,3.34,7.98,6.25,16.28,10.73,23.6,4.38,7.16,10.51,13.25,15.91,19.85-14.72.95-23.12-1.57-31.82-11.41-4.77-5.39-8.37-11.93-11.87-18.3-3.17-5.77-5.49-12-7.86-17.31-15.73-4.6-53.83-5.48-80.18-2.19-2.28-.15-4.56-.31-6.84-.46,2.25-5.24,4.5-10.47,6.76-15.71,2.06,0,4.12.02,6.18.02.7,4.47,3.11,7.39,7.8,7.37,17.17-.06,34.35-.23,51.52-.6,1.67-.04,3.3-1.71,4.87-2.58,2.48-7.43-1.5-13.24-3.85-19.19-7.53-19.06-15.37-38-23.09-56.98-3.64-1.59-7.29-3.17-10.93-4.76Z"/><path class="cls-1" d="M2125.05,407.66c4.86-11.53,8.37-23.74,16.75-35.5,2.96,3.18,5.72,5.02,6.88,7.59,5.2,11.53,10,23.25,14.83,34.94,11.44,27.71,22.78,55.46,34.23,83.16,3.56,8.62,6.6,17.57,11.25,25.58,4.55,7.85,10.83,14.7,17.58,23.61-5.65-.65-10.31-.24-14.11-1.85-6.02-2.55-12.47-5.48-16.9-10.03-5.43-5.59-9.32-12.83-13.22-19.72-3.24-5.71-5.53-11.96-7.96-17.32-16.47-4.07-39.5-4.73-78.5-2.5-2.12-1.4-4.24-2.81-6.36-4.21,1.04-2.31,2.07-4.61,3.11-6.92,2.7,1.06,5.4,2.13,8.11,3.19,18.44.07,36.89.3,55.33.07,3.51-.04,7-1.9,10-2.77.14-2.84.65-4.3.21-5.39-8.88-21.98-17.73-43.97-27.04-65.76-1.07-2.5-4.78-3.86-7.27-5.75-2.3-.14-4.6-.28-6.89-.42Z"/><path class="cls-1" d="M1662.13,268.26c-13.41,5.67-18.05,3.78-19.07-7.19-.49-5.28-.32-10.62-.32-15.94-.02-44.53.06-89.06-.08-133.59-.03-9.24-.85-18.48-1.38-29.43,3.05-1.42,6.86-3.94,11.03-4.93,6.18-1.46,9.95,1.88,10.53,8.52.34,3.96.32,7.97.32,11.95.02,51.18.04,102.35-.04,153.53,0,5.88-.66,11.75-.98,17.08Z"/><path class="cls-1" d="M2881.69,81.83c.81-.61,2.22-2.26,3.99-2.9,13.14-4.71,17.29-2.14,17.33,11.62.15,56.56.04,113.12-.03,169.68,0,2.62-.55,5.24-.84,7.86-1.88,1.22-3.4,2.92-5.16,3.24-8.35,1.5-12.35-.65-13.2-7.47-.74-5.91-.73-11.94-.74-17.91-.06-43.92.05-87.83-.09-131.75-.03-10.56-.79-21.11-1.25-32.38Z"/><path class="cls-1" d="M2017.27,539.72v-161.02c2.24-3.83,8.16-4.21,15.64-4.39,1.42,3.81,3.46,7.81,4.33,12.06.78,3.84.34,7.95.34,11.94.01,40.59.01,81.18,0,121.77,0,3.99.13,8-.21,11.97-1.09,12.48-6.18,14.71-20.1,7.67Z"/><path class="cls-1" d="M796.88,540.17c-1.32-52.81.41-106.61-1.01-160.85,4.49-4.41,10-5.18,17.43-3.39,1.07,3.8,3.32,8.1,3.35,12.41.26,47.24.19,94.47.16,141.71,0,1.98-.23,3.99-.59,5.94-1.42,7.69-5.99,9.99-14.76,7.35-1.2-.36-2.18-1.48-4.58-3.18Z"/><path class="cls-1" d="M2525.07,541.28c-.21-6.08-.62-12.63-.65-19.18-.09-21.93.05-43.86-.1-65.79-.12-17.37-.25-17.37-8.82-31.6,12.07-4.13,21.98.49,31.11,8.03,5.73-3.16,10.78-6.31,16.13-8.82,8.74-4.1,17.95-5.07,27.11-1.7,2.94,1.08,5.66,3.44,7.78,5.84.98,1.1.9,4.03.13,5.53-.74,1.43-3.07,3-4.56,2.88-3.24-.27-6.35-2.05-9.6-2.35-5.89-.55-12.12-1.72-17.69-.43-15.72,3.64-21.33,12.81-21.08,24.85.4,19.26.07,38.54.01,57.81-.01,5.31.17,10.65-.25,15.94-1.01,12.73-5.11,14.75-19.52,9Z"/><path class="cls-1" d="M2631.62,425.54c5.22-3.63,11.17-5.61,17.96-3.19,3.42,14.2,4.35,91.17,1.45,118.9-5.1,4.54-10.62,3.88-16.82.84-.53-1.45-1.71-3.21-1.72-4.98-.19-21.2-.16-42.4-.3-63.59-.1-15.82-.37-31.63-.57-47.98Z"/><path class="cls-1" d="M1870.7,480.32c-2.06,0-4.12-.02-6.18-.02,10.83-25.57,21.66-51.14,32.48-76.72,3.64,1.59,7.29,3.17,10.93,4.76-7.31,2.26-8.92,9.05-11.57,14.87-8.66,18.99-17.13,38.07-25.67,57.11Z"/><path class="cls-1" d="M2125.05,407.66c2.3.14,4.59.28,6.89.42-7.94,19.01-16.03,37.95-23.74,57.06-2.96,7.33-5.02,15.02-7.49,22.55-2.7-1.06-5.4-2.13-8.1-3.19,10.81-25.61,21.63-51.22,32.44-76.83Z"/><path class="cls-1" d="M2089.5,491.41c2.12,1.4,4.24,2.81,6.36,4.21-7.5,16.11-12.93,33.2-21.26,48.28-6.61-.37-6.68-3.62-5.25-6.91,6.6-15.24,13.41-30.4,20.15-45.58Z"/><path class="cls-1" d="M696.11,76.15c-3,.92-6.09,1.63-8.98,2.81-2.97,1.21-5.61,3.52-8.65,4.18-4.76,1.04-9.1-.51-11.88-4.91-2.39-3.78-1.89-9.37,1.19-12.79,3.36-3.74,7.51-5.03,12.4-3.44,5.48,1.78,9.24,7.67,15.9,6.67,0,2.49.02,4.99.03,7.49Z"/><path class="cls-1" d="M1273.78,90.66c-5.77.14-11.45-5.54-11.53-11.54-.09-6.36,4.98-11,11.72-10.74,6.21.24,10.32,4.16,10.32,9.84,0,6.41-4.98,12.3-10.51,12.43Z"/><path class="cls-1" d="M2645.26,393.73c.06,5.8-5.44,11.96-10.9,12.2-5.3.23-10.86-5.69-11.14-11.87-.25-5.55,3.84-9.81,9.81-10.21,7.05-.47,12.17,3.66,12.23,9.87Z"/><path class="cls-1" d="M2205.8,91.82c-6.33-.21-10.3-4.98-10.11-12.14.17-6.14,5.89-11.11,11.96-10.38,6,.72,10.8,6.4,10.46,12.39-.34,6.11-5.5,10.35-12.31,10.13Z"/><path class="cls-1" d="M1857.77,496c2.28.15,4.56.31,6.84.46-6.05,16.3-11.13,33.06-21.05,47.26-4.66-1.24-5.04-3.92-3.96-6.45,5.93-13.81,12.09-27.53,18.17-41.28Z"/><path class="cls-1" d="M1244.07,90.51c-6.14.55-11.41-4.04-11.85-10.32-.48-6.75,3.53-11.61,9.93-12.06,6.38-.44,11.49,3.86,12.1,10.18.58,5.99-4.15,11.65-10.18,12.19Z"/><path class="cls-1" d="M1831.49,86.24c-.23,5.67-5.72,9.96-12.7,9.92-5.25-.04-9.88-4.97-9.84-10.48.05-5.97,5.58-11.26,11.68-11.17,6.24.09,11.11,5.35,10.85,11.73Z"/><path class="cls-1" d="M789.89,300.95c6.25.39,10.63,5.83,10.03,12.44-.5,5.59-5.09,9.79-10.68,9.77-6.26-.02-11.62-5.43-11.35-11.45.27-6.17,5.82-11.15,11.99-10.76Z"/><path class="cls-1" d="M759.52,300.96c6,.54,10.48,6.39,9.7,12.64-.68,5.4-5.54,9.73-10.81,9.63-6.36-.12-10.93-5.17-10.61-11.72.33-6.56,5.39-11.12,11.71-10.55Z"/><path class="cls-1" d="M696.11,76.15c0-2.5-.02-5-.03-7.49,2.31-2.2,4.26-5.21,7.01-6.44,4.61-2.07,9.6-.13,12.22,3.59,2.5,3.55,2.7,9.59.13,13.01-3.12,4.16-7.59,5.61-12.21,3.62-2.77-1.19-4.78-4.13-7.13-6.29Z"/><path class="cls-1" d="M1412.03,536.02c-2.59,1.45-5.17,2.9-7.76,4.35,0,0-.21-.2-.21-.2,2.71-1.29,5.41-2.58,8.12-3.88l-.15-.28Z"/></g></svg>