<?xml version="1.0" encoding="UTF-8"?><svg id="Layer_2" xmlns="http://www.w3.org/2000/svg" width="413.13" height="250.99" viewBox="0 0 413.13 250.99"><defs><style>.cls-1{fill:#000;stroke-width:0px;}</style></defs><g id="Layer_2-2"><g id="Layer_1-2"><path class="cls-1" d="M397.19,245.2c5.44,1.24,10.69,2.43,15.94,3.63-.05.09-.11.17-.16.26-8.89-.4-17.8-.66-26.67-1.3-2.74-.2-5.59-1.02-8.06-2.23-14.77-7.22-29.68-6.62-44.21-.07-13.52,6.09-26.64,6.38-40.23.73-11.62-4.83-23.32-5.14-35.28-.5-13.1,5.07-26.33,5.17-39.71.15-13.6-5.11-27.68-4.53-40.97.54-14.13,5.4-27.59,5.84-41.28-.52-8.65-4.02-17.24-3.7-25.92.12-7.64,3.36-15.66,5.72-24.07,4.76-4.27-.49-9.3-1.34-12.38-3.93-9.28-7.82-19.73-6.97-30.27-5.44-6.83.99-13.48,3.27-20.23,4.88-1.68.4-3.44.45-5.19.43,13.4-3.99,13.72-4.07,10.4-17.74-4.48-18.47-4.89-37.21-3.63-55.93.67-9.98,3.5-19.81,5.23-29.74.95-5.48,1.64-11,2.63-17.7-1.95,1.3-2.77,1.84-4.15,2.76.99-4.44,1.87-8.36,2.75-12.28-.25-.21-.51-.43-.76-.64-1.47,1.54-2.94,3.08-5.58,5.84,1.45-5.4,2.54-9.44,3.91-14.52-1.94,1.43-3.15,2.32-4.82,3.55,2.32-8.12,7.2-13.64,14.24-17.54-.32-.45-.65-.89-.97-1.34-3.06,1.52-6.12,3.03-8.9,4.41,4.31-9.22,11.44-13.14,31.05-16.43-12.99-2.58-23.25.99-32.53,9.55-.13-.98-.21-1.51-.27-2.05-.06-.48-.1-.95-.24-2.32-1.9,2.09-3.35,3.69-5.06,5.57.1-1.53.18-2.72.37-5.43-4.89,3.73-8.86,6.76-13.16,10.05.49-1.87.93-3.51,1.65-6.23-3.89,2.33-6.97,4.17-10.06,6.02-.2-.2-.4-.4-.6-.6,1.58-2.21,3.17-4.43,5.06-7.07-1.71.3-3.05.54-4.38.77-.19-.26-.38-.53-.56-.79,3.6-2.56,7.2-5.13,10.93-7.79-1.33-.17-2.7-.34-4.08-.52-.1-.35-.19-.7-.29-1.05,5.68-1.42,11.35-2.83,18.35-4.58-3.61-1.22-6.31-2.13-9.02-3.04,0-.27-.01-.54-.02-.81,5.02-.88,10.05-1.75,16-2.79-1.84-1.15-3.1-1.93-4.36-2.71-.03-.3-.05-.61-.08-.91,5.81.28,11.62.56,17.43.84.09-.28.18-.55.26-.83-3.13-1.12-6.26-2.24-8.95-3.21,7.66-1.54,16.83-1.55,31.04,9.43-1.48-6.84-13.14-15.54-22.71-17.25-.41-4.53-4.71-2.32-6.41-4.02.63-.53,1.26-1.07,2.39-2.03-2.98-.68-5.33-1.22-8.16-1.87,1.38-.83,2.39-1.44,4.82-2.91-5.05-.86-8.71-1.48-12.55-2.14,7.56-5.33,21.94-4.31,28.92,2.22v-5.52c2.83,4.74,5.05,8.46,8.06,13.5.24-3.25.39-5.22.65-8.74,2.55,4.61,4.48,8.09,6.79,12.25.6-1.66.99-2.72,1.59-4.37,1.85,3.53,3.5,6.68,5.54,10.58,2.11-3.15,3.66-6.19,5.9-8.59,1.55-1.67,2.45-6.31,6.64-2.78.34.28,2.87-1.87,4.26-3.05,21.08-17.81,44.97-30.51,71.63-37.36,56.18-14.45,108.88-6.13,157.15,26.47,40.07,27.07,65.63,64.67,77.47,111.37,5.62,22.18,7.42,44.89,3.78,67.69-1.66,10.42-4,20.74-6,31.11-.12.61.1,1.27.14,1.76l-.04-.03ZM196.88,100.19c-5.62,3.82-11.82,7.63-17.52,12.07-2.7,2.1-4.47,5.4-6.66,8.15,10.55-5.69,17.62-8.37,21.19-8.04-1.28.99-2.51,1.93-4.47,3.45,4.96-.76,8.95-1.36,13.58-2.07-1.06,1.46-1.59,2.18-2.41,3.32,4.03.45,7.62.84,11.99,1.33-2.54,1.18-4.22,1.96-5.89,2.73-.04.44-.07.87-.11,1.31,8.04-1.97,11.77,4.45,17.55,7.63-1.14.61-1.81.98-2.61,1.4,1.07,1.34,2.07,2.59,3.71,4.65-3.02-1.45-4.99-2.4-7.46-3.58.36,1.84.55,2.86.85,4.41-2.03-1.57-3.54-2.89-5.2-3.98-1.21-.79-3.15-2.18-3.84-1.77-3.29,1.97-6.04.71-8.97-.59-2.71-1.21-5.4-2.85-8.25-3.24-4.01-.56-8.15-.14-12.23-.14-.04.61-.07,1.22-.11,1.82,8.96-.73,16.92,1.08,23.38,8.98-2.56-.78-4.35-1.32-6.14-1.87-.32.33-.65.67-.97,1,9.46,3.12,10.09,10.66,10.28,18.34-1.03-.5-2.09-1.02-3.64-1.77,4.12,10.77-4.16,16.88-7.85,24.58.42-3.48.85-6.96,1.37-11.24-1.45,1.03-2.15,1.53-3.71,2.63v-13.52c-.36-.04-.72-.08-1.08-.12l-2.97,6.78c-.32-.08-.63-.16-.95-.24v-11.45c-1.52,2.22-2.27,3.32-2.79,4.09-1.29-5.39-2.58-10.81-3.87-16.23-.5.06-1,.11-1.5.17-.38,1.2-.76,2.4-1.21,3.85-1.28-2.81-2.43-5.33-3.58-7.85-.45.1-.9.19-1.35.29,5.91,35.33-1.63,69.23-10.81,103.96,6.31-.7,12.1-.91,17.7-2.06,15.1-3.08,29.91-3.13,44.6,2.2,8.12,2.94,16.54,3.29,24.85.62,15.81-5.09,31.56-7.43,47.42-.19,11.5,5.25,22.87,4.74,34.57-.05,16.66-6.81,33.24-6.93,49.19,2.63,1.24.75,2.85.86,4.16,1.52,4.15,2.09,6.2.33,6.88-3.73,2.13-12.71,4.46-25.39,6.19-38.15,2.43-17.85.43-35.63-3.66-52.93-11.08-46.96-36.55-84.45-76.49-111.76-30.68-20.98-64.8-31.45-101.9-31.48-11.05,0-22.16,1.34-33.13,2.86-29.01,4.02-54.68,16.22-78.26,33.17-1.14.82-1.9,2.18-2.69,3.12,5.33.67,10.07,1.26,14.8,1.85-.03.23-.05.47-.08.7-2.49.54-4.99,1.09-7.84,1.71,1.04,1.14,1.64,1.79,1.88,2.05-4.39,2.33-8.47,4.5-12.67,6.73.74.64,1.26,1.1,1.98,1.72-8.92,2.59-18.21,8.65-18.84,13.84,13.22-8.57,16.3-9.55,26.84-8.27-2.55,1.07-4.63,1.95-8.01,3.37,6.53-.29,11.53-.51,16.54-.73,0,.38-.02.76-.03,1.13-1.41.8-2.82,1.6-5.27,2.98,5.49.84,9.55,1.47,13.62,2.09-.02.28-.04.56-.06.84-1.95.76-3.9,1.52-6.91,2.7,5.57,1.21,9.85,2.14,14.37,3.13-1.06,1.23-1.55,1.8-1.97,2.28,3.14,1.92,6.03,3.68,9.62,5.88-1.98.55-2.87.79-3.83,1.06,1.41,2.09,2.72,4.04,4.44,6.58-3.56-2.19-6.36-3.91-10.07-6.19.56,2.85.84,4.27,1.1,5.54-4.1-2.99-8.06-5.88-12.02-8.77-.28.36-.57.71-.85,1.07.67,1.95,1.34,3.9,2.37,6.92-2.28-2.49-3.75-4.1-6.23-6.81.25,2.59.35,3.56.48,4.94-10.43-10.96-20.31-14.59-27.78-10.46,18.35,6.27,21.17,8.08,23.87,15.25-2.26-1.3-4.58-2.63-6.36-3.66,3.04,6.29,6.15,12.73,9.27,19.17-.29.18-.58.35-.87.53-1.68-1.37-3.35-2.74-5.03-4.11l-.75.54c1.46,3.88,2.93,7.76,4.8,12.74-1.39-1.14-1.73-1.46-2.11-1.72-.37-.25-.79-.43-1.61-.87.99,9.57-5.46,14.85-11.02,20.58-.89.92-2.24,1.39-4.09,2.5,2.02-5.26,3.7-9.62,5.38-13.98l-.84-.52c-1.47,1.18-2.93,2.36-4.01,3.23.71-6.1,1.44-12.4,2.18-18.71-.43-.07-.86-.13-1.3-.2-2.08,3.52-4.17,7.04-6.25,10.55-.21-.12-.42-.25-.63-.37.8-4.25,1.6-8.49,2.4-12.74-.36-.15-.71-.31-1.07-.46-1.38,1.47-2.77,2.94-4.54,4.83,1.23-7.76,2.05-14.8-.43-22.8-1.36,2.67-2.2,4.32-2.81,5.52-1.49-3.41-3-6.87-4.5-10.32-.44.19-.88.38-1.32.58-.45,19.96-.62,39.91,4.51,59.43,7.93,30.13,24.02,56.16,41.63,81.34,1.23,1.76,3.99,2.78,6.24,3.42,3.64,1.04,7.47,1.37,11.17,2.2,9.73,2.18,9.62,2.18,13.47-7.29,9.83-24.17,15.33-49.24,15.88-75.35.11-5.4.02-10.8.02-16.19-.57-.08-1.13-.16-1.7-.23-.89,2.31-1.77,4.63-2.63,6.87-.83-.7-1.72-1.44-3.19-2.68v13.91c-.51-.06-1.39-.15-2.82-.31.66,3.1,1.22,5.77,2.07,9.78-2.22-3.13-3.68-5.2-5.15-7.27-.35.11-.7.21-1.05.32.72,4.25,1.44,8.49,2.18,12.82-.77-.4-1.67-.88-3.8-2,1.87,4.2,3.23,7.26,4.59,10.32-5.89-3.64-10.92-7.74-12.3-15.03-.16,0-.9.07-1.83.14.91-2.91,1.77-5.69,2.86-9.18-1.72.97-2.78,1.57-4.82,2.72,2.12-5.42,3.79-9.7,5.53-14.15-1.03.48-2.18,1.01-4.27,1.97,3.91-7.3,10.26-9.4,16.44-11.8-2.41-.46-4.85-1.13-6.63-.33-4.97,2.23-9.71,5-14.44,7.72-1.02.58-1.65,1.85-2.74,3.12.25-1.94.44-3.38.79-6.06-3.54,3.07-6.07,5.26-8.66,7.5-.11-1.15-.21-2.14-.33-3.31-1.73.95-3.06,1.67-4.58,2.5.45-8.34,6.06-11.14,13.52-13.02-2.28-.96-3.72-1.57-4.91-2.08,1.77-3.23,8.47,1.47,8.29-5.63h9.3c-2.07-1.19-3.09-1.78-4.12-2.37.18-.52.35-1.03.53-1.55,6.23,1.81,12.47,3.62,18.7,5.44.16-.29.32-.58.48-.87-7.77-4.56-15.54-9.13-23.3-13.69.04-.13.07-.27.11-.4-1.58-.7-3.15-1.4-5.39-2.4,7.85-.67,15.01-4.14,22.23.66v-3.97c3.35,3.83,5.89,6.72,8.5,9.71,1.25-2.15,2.5-4.3,3.74-6.45,3.46,2.2,2.75-1.47,3.55-2.68,1.06-1.61,1.68-3.51,2.98-6.37v6.52c1.58-5.92,6.63-7.15,11.13-8.68,7.01-2.39,10.8-2.21,14.84-.12-.85,2.57-6.34-.62-5.73,4.63v-.03ZM39.46,140.84c-10.96,6.81-11.95,80.09-1.22,98.53,14.25-5.4,28.42-3.48,42.53,1.48,9.64,3.39,17.55-1.04,25.84-6.24-28.48-44.37-44.18-91.97-38.05-145.42-.65.07-1.3.15-1.95.22-.99,3.68-1.98,7.36-3.07,11.39-.74-2.63-1.35-4.85-1.97-7.06-.71.03-1.42.06-2.13.09-1.12,7.76-2.24,15.53-3.36,23.32-1.07-1.73-2.12-3.43-3.17-5.13-.38.12-.76.24-1.14.36.23,5.12.45,10.23.73,16.53-2.2-4.57-3.94-8.2-5.69-11.83-.43.13-.86.27-1.3.4.55,6.64,1.1,13.28,1.77,21.33-1.84-2.54-3.14-4.34-4.44-6.13-.45.24-.9.48-1.35.72,1.38,5.03,2.76,10.06,4.13,15.09-.19.11-.39.21-.58.32-1.86-2.66-3.72-5.32-5.57-7.97h0Z"/></g></g></svg>